<svg id="svg" version="1.1" width="400" height="400.8849557522124" viewBox="0 0 400 400.8849557522124" xmlns="http://www.w3.org/2000/svg" xmlns:xlink="http://www.w3.org/1999/xlink" ><g id="svgg"><path id="path0" d="M0.000 200.400 L 0.000 400.800 200.000 400.800 L 400.000 400.800 400.000 200.400 L 400.000 0.000 200.000 0.000 L 0.000 0.000 0.000 200.400 M392.300 200.492 L 392.401 391.985 391.500 392.201 C 391.005 392.321,304.740 392.369,199.800 392.309 L 9.000 392.200 8.900 200.500 L 8.799 8.799 200.500 8.900 L 392.200 9.000 392.300 200.492 M134.200 95.273 C 130.171 96.005,123.319 97.552,122.200 97.982 C 121.760 98.151,120.680 98.507,119.800 98.773 C 113.336 100.729,104.675 104.820,97.814 109.159 C 95.278 110.763,89.282 115.030,88.800 115.574 C 88.690 115.698,87.520 116.690,86.200 117.779 C 83.158 120.286,77.173 126.276,74.587 129.400 C 73.494 130.720,72.500 131.890,72.379 132.000 C 72.257 132.110,71.628 132.920,70.981 133.800 C 70.334 134.680,69.706 135.490,69.587 135.600 C 69.196 135.958,64.800 142.368,64.800 142.579 C 64.800 142.692,64.170 143.769,63.400 144.973 C 62.630 146.177,62.000 147.350,62.000 147.581 C 62.000 147.811,61.820 148.000,61.600 148.000 C 61.380 148.000,61.200 148.197,61.200 148.438 C 61.200 148.678,60.184 150.973,58.942 153.538 C 57.700 156.102,56.554 158.560,56.395 159.000 C 56.237 159.440,55.917 160.250,55.685 160.800 C 55.452 161.350,54.962 162.700,54.596 163.800 C 54.229 164.900,53.765 166.113,53.565 166.495 C 53.364 166.877,53.200 167.541,53.200 167.971 C 53.200 168.401,53.040 168.852,52.844 168.973 C 52.649 169.094,52.395 169.779,52.281 170.496 C 52.168 171.213,51.878 172.520,51.639 173.400 C 51.073 175.477,49.772 182.213,49.227 185.877 C 48.669 189.633,48.671 208.089,49.230 212.200 C 49.469 213.960,50.036 217.290,50.491 219.600 C 50.945 221.910,51.401 224.387,51.503 225.104 C 51.605 225.821,51.849 226.506,52.044 226.627 C 52.240 226.748,52.400 227.278,52.400 227.805 C 52.400 228.331,52.571 229.176,52.780 229.681 C 52.990 230.187,53.810 232.490,54.604 234.800 C 57.557 243.393,64.827 256.689,68.940 261.022 C 69.193 261.288,70.030 262.290,70.800 263.249 C 74.998 268.475,89.884 281.200,91.799 281.200 C 91.952 281.200,92.554 281.538,93.138 281.951 C 94.393 282.838,99.762 285.586,102.600 286.793 C 103.700 287.261,104.960 287.802,105.400 287.996 C 105.840 288.189,107.370 288.723,108.800 289.183 C 119.839 292.728,129.408 293.967,140.089 293.234 C 151.671 292.439,155.573 291.998,159.800 291.008 C 161.340 290.648,163.369 290.249,164.309 290.123 C 165.249 289.997,166.115 289.738,166.233 289.547 C 166.351 289.356,166.829 289.200,167.295 289.200 C 168.225 289.200,168.648 289.075,174.800 286.983 C 178.957 285.569,180.347 285.039,181.695 284.353 C 182.077 284.159,182.567 284.000,182.784 284.000 C 183.254 284.000,185.962 282.778,193.096 279.347 C 199.561 276.238,198.583 276.185,201.406 279.800 C 201.922 280.460,203.983 283.070,205.987 285.600 C 207.991 288.130,210.029 290.723,210.515 291.362 C 212.917 294.516,213.710 295.400,214.136 295.400 C 214.483 295.400,214.650 286.002,214.800 258.000 C 214.983 223.830,215.060 220.424,215.696 218.565 C 217.213 214.132,219.905 211.731,226.200 209.196 C 228.453 208.289,233.703 207.373,239.909 206.805 C 250.838 205.805,244.529 205.625,199.600 205.653 C 157.547 205.680,148.645 205.899,160.600 206.615 C 187.015 208.195,192.811 211.074,195.203 223.800 C 195.763 226.777,195.498 251.268,194.875 254.200 C 194.641 255.300,194.335 256.740,194.195 257.400 C 194.054 258.060,193.782 258.960,193.590 259.400 C 193.398 259.840,192.977 261.010,192.655 262.000 C 189.405 272.004,178.684 282.436,167.600 286.382 C 166.830 286.656,165.840 287.030,165.400 287.212 C 163.706 287.913,160.493 288.780,158.000 289.209 C 156.570 289.455,154.531 289.823,153.469 290.028 C 150.983 290.507,135.940 290.513,134.046 290.035 C 133.251 289.834,131.430 289.466,130.000 289.216 C 127.182 288.723,123.813 287.783,122.705 287.179 C 122.323 286.970,121.736 286.800,121.400 286.800 C 121.064 286.800,120.477 286.638,120.095 286.441 C 119.713 286.243,117.960 285.391,116.200 284.546 C 108.033 280.628,98.803 272.904,93.800 265.800 C 92.715 264.260,91.722 262.910,91.593 262.800 C 91.363 262.605,90.105 260.603,88.700 258.200 C 87.967 256.947,85.379 251.676,84.235 249.109 C 82.919 246.155,81.151 241.308,80.401 238.600 C 80.219 237.940,79.771 236.320,79.407 235.000 C 78.431 231.462,77.202 225.763,76.775 222.800 C 75.558 214.347,75.404 211.430,75.407 197.000 C 75.411 182.698,75.561 179.787,76.758 170.800 C 77.372 166.188,78.871 159.181,80.373 153.900 C 80.608 153.075,80.965 151.815,81.167 151.100 C 82.027 148.052,83.662 143.508,84.836 140.904 C 85.256 139.972,85.600 139.121,85.600 139.013 C 85.600 138.905,86.378 137.238,87.328 135.308 C 95.283 119.156,105.725 108.164,119.200 101.762 C 122.285 100.296,122.676 100.136,125.600 99.155 C 130.528 97.500,135.009 96.792,142.200 96.531 C 147.847 96.325,152.756 96.696,156.400 97.601 C 157.170 97.793,158.700 98.168,159.800 98.436 C 162.551 99.105,168.467 101.470,171.600 103.153 C 174.173 104.535,182.014 109.473,182.400 109.955 C 182.510 110.092,183.320 110.733,184.200 111.378 C 186.268 112.895,195.098 121.723,196.624 123.800 C 197.271 124.680,198.036 125.649,198.325 125.953 C 201.422 129.219,213.184 150.361,213.202 152.696 C 213.204 152.863,213.434 153.450,213.713 154.000 C 213.993 154.550,214.652 156.305,215.178 157.900 C 217.146 163.865,217.281 161.196,216.409 133.600 C 216.190 126.670,215.910 115.690,215.787 109.200 C 215.550 96.690,215.402 94.666,214.741 94.886 C 214.341 95.020,212.591 98.223,207.522 108.100 C 206.083 110.903,204.871 112.800,204.517 112.800 C 203.780 112.800,201.600 111.540,201.600 111.114 C 201.600 110.941,201.423 110.800,201.208 110.800 C 200.992 110.800,199.854 110.185,198.678 109.432 C 193.441 106.082,185.046 101.963,180.200 100.364 C 179.320 100.074,178.429 99.693,178.220 99.518 C 178.011 99.343,177.437 99.200,176.944 99.200 C 176.451 99.200,175.936 99.020,175.800 98.800 C 175.664 98.580,175.111 98.400,174.571 98.400 C 174.031 98.400,173.277 98.239,172.895 98.043 C 172.513 97.846,171.300 97.497,170.200 97.266 C 164.569 96.085,161.913 95.599,159.000 95.216 C 155.187 94.714,137.048 94.756,134.200 95.273 M269.400 95.250 C 260.412 96.849,259.938 96.949,254.600 98.394 C 249.231 99.847,240.290 103.684,234.400 107.063 C 231.981 108.451,227.049 111.637,226.800 111.973 C 226.690 112.121,225.880 112.773,225.000 113.421 C 224.120 114.070,223.175 114.812,222.900 115.071 C 222.520 115.430,222.413 118.348,222.454 127.271 C 222.484 133.722,222.587 138.595,222.682 138.100 C 222.778 137.605,223.023 137.200,223.228 137.200 C 223.433 137.200,223.600 136.989,223.600 136.731 C 223.600 136.209,225.410 131.389,226.013 130.305 C 226.226 129.923,226.400 129.413,226.400 129.171 C 226.400 128.771,228.263 124.879,229.642 122.396 C 232.783 116.743,241.037 108.345,247.400 104.328 C 263.009 94.473,281.811 93.730,299.059 102.287 C 309.612 107.522,319.269 117.252,326.963 130.400 C 328.062 132.278,334.800 145.849,334.800 146.184 C 334.800 146.290,335.230 147.327,335.756 148.488 C 336.578 150.304,337.391 152.257,338.801 155.800 C 338.976 156.240,339.336 157.230,339.600 158.000 C 342.413 166.192,342.580 165.443,342.209 146.355 C 342.031 137.250,341.777 121.970,341.643 112.400 C 341.341 90.756,341.660 91.259,335.761 103.124 C 330.607 113.494,331.358 112.910,327.203 109.769 C 325.334 108.356,323.579 107.200,323.303 107.200 C 323.026 107.200,322.800 107.041,322.800 106.847 C 322.800 106.652,322.485 106.393,322.100 106.271 C 321.715 106.148,320.140 105.357,318.600 104.512 C 317.060 103.668,314.090 102.292,312.000 101.455 C 309.910 100.618,307.840 99.786,307.400 99.607 C 305.598 98.872,302.494 97.962,296.557 96.427 C 290.535 94.870,275.260 94.208,269.400 95.250 M346.810 240.942 C 339.038 258.789,329.037 271.266,317.198 277.885 C 315.127 279.043,309.919 281.667,309.000 282.015 C 308.560 282.182,307.570 282.585,306.800 282.910 C 304.789 283.761,300.557 285.014,298.000 285.516 C 296.790 285.753,294.841 286.140,293.669 286.374 C 291.068 286.894,274.853 286.942,272.846 286.435 C 272.051 286.234,270.410 285.859,269.200 285.602 C 251.235 281.789,233.293 267.102,225.951 250.200 C 225.760 249.760,224.888 247.690,224.014 245.600 L 222.423 241.800 222.429 259.200 L 222.434 276.600 225.050 278.400 C 226.489 279.390,227.889 280.405,228.161 280.656 C 228.856 281.298,233.996 284.517,235.200 285.065 C 238.346 286.497,240.149 287.202,243.200 288.193 C 245.070 288.800,246.913 289.455,247.295 289.648 C 247.677 289.842,248.343 290.000,248.776 290.000 C 249.208 290.000,249.976 290.161,250.481 290.357 C 257.489 293.080,277.204 294.101,289.000 292.350 C 301.512 290.494,316.344 283.789,324.865 276.138 C 329.567 271.916,334.079 267.096,336.600 263.600 C 337.472 262.390,338.324 261.340,338.493 261.267 C 338.662 261.193,338.800 260.893,338.800 260.600 C 338.800 260.307,338.942 260.007,339.115 259.933 C 339.288 259.860,339.963 258.920,340.615 257.845 C 341.267 256.770,342.089 255.420,342.443 254.845 C 345.436 249.984,349.273 242.109,349.126 241.130 C 348.899 239.614,347.440 239.495,346.810 240.942 " stroke="none" fill="#211d1d" fill-rule="evenodd"></path><path id="path1" d="M9.200 200.400 L 9.200 391.600 200.600 391.600 L 392.000 391.600 392.000 201.033 C 392.000 96.221,391.891 10.181,391.757 9.833 C 391.536 9.257,374.299 9.200,200.357 9.200 L 9.200 9.200 9.200 200.400 M157.200 94.364 C 163.760 95.021,168.584 95.882,171.119 96.849 C 171.624 97.042,172.392 97.200,172.824 97.200 C 173.257 97.200,173.923 97.358,174.305 97.552 C 174.687 97.745,176.530 98.400,178.400 99.007 C 184.453 100.972,194.524 105.842,200.423 109.657 C 203.984 111.960,205.200 112.305,205.200 111.013 C 205.200 110.676,205.380 110.400,205.600 110.400 C 205.820 110.400,206.000 110.135,206.000 109.812 C 206.000 109.489,206.386 108.544,206.857 107.712 C 207.329 106.880,208.876 103.950,210.295 101.200 C 213.600 94.797,214.342 93.600,215.009 93.600 C 216.018 93.600,216.116 94.484,216.452 106.557 C 216.635 113.180,217.002 126.340,217.265 135.800 C 217.950 160.374,217.945 161.219,217.111 161.746 C 216.311 162.252,215.364 161.299,214.979 159.600 C 214.854 159.050,214.583 158.287,214.376 157.905 C 214.169 157.523,214.000 156.884,214.000 156.485 C 214.000 156.086,213.849 155.589,213.664 155.380 C 213.479 155.171,213.092 154.370,212.804 153.600 C 211.724 150.714,209.995 146.759,208.784 144.400 C 208.388 143.630,207.379 141.656,206.542 140.013 C 205.704 138.371,204.472 136.211,203.803 135.213 C 203.134 134.216,202.335 132.905,202.026 132.300 C 201.717 131.695,201.315 131.200,201.132 131.200 C 200.950 131.200,200.800 131.005,200.800 130.766 C 200.800 129.823,193.910 121.476,189.601 117.200 C 181.551 109.211,170.612 102.364,161.800 99.799 C 160.480 99.415,159.040 98.954,158.600 98.775 C 153.233 96.593,136.366 96.785,128.000 99.125 C 123.189 100.470,114.388 104.588,112.237 106.500 C 111.803 106.885,111.326 107.200,111.176 107.200 C 109.203 107.200,94.000 123.028,94.000 125.082 C 94.000 125.367,93.850 125.600,93.668 125.600 C 93.485 125.600,93.081 126.095,92.771 126.700 C 92.461 127.305,91.655 128.700,90.979 129.800 C 90.303 130.900,89.281 132.790,88.708 134.000 C 88.134 135.210,87.151 137.280,86.523 138.600 C 85.895 139.920,85.128 141.810,84.818 142.800 C 84.509 143.790,84.139 144.780,83.997 145.000 C 83.855 145.220,83.235 147.020,82.620 149.000 C 82.005 150.980,81.357 152.960,81.181 153.400 C 81.005 153.840,80.749 154.740,80.612 155.400 C 80.476 156.060,80.212 157.230,80.026 158.000 C 76.943 170.762,75.811 181.365,75.820 197.400 C 75.829 212.998,76.873 222.231,80.004 234.400 C 80.202 235.170,80.476 236.340,80.612 237.000 C 80.749 237.660,81.018 238.560,81.210 239.000 C 81.402 239.440,81.822 240.610,82.142 241.600 C 82.462 242.590,82.944 243.940,83.212 244.600 C 83.480 245.260,83.857 246.205,84.050 246.700 C 84.242 247.195,84.558 248.005,84.751 248.500 C 85.534 250.510,89.000 257.409,89.290 257.533 C 89.460 257.607,89.600 257.845,89.600 258.063 C 89.600 258.595,92.953 263.753,94.756 265.997 C 99.448 271.833,104.116 276.358,108.204 279.031 C 109.522 279.893,110.690 280.688,110.800 280.799 C 112.613 282.622,124.469 287.493,129.400 288.441 C 142.114 290.884,157.598 289.864,166.700 285.984 C 167.195 285.773,168.095 285.395,168.700 285.144 C 170.545 284.379,173.739 282.716,174.862 281.937 C 175.446 281.532,176.038 281.200,176.179 281.200 C 176.319 281.200,176.651 281.025,176.917 280.810 C 185.792 273.651,189.795 268.511,192.189 261.200 C 192.585 259.990,193.041 258.640,193.201 258.200 C 194.313 255.154,194.526 252.660,194.690 240.800 C 194.978 219.868,193.753 214.839,187.674 212.007 C 187.083 211.732,186.287 211.348,185.905 211.153 C 185.523 210.959,184.859 210.800,184.429 210.800 C 183.999 210.800,183.536 210.620,183.400 210.400 C 183.264 210.180,182.591 210.000,181.905 210.000 C 181.218 210.000,180.104 209.831,179.428 209.625 C 176.651 208.777,167.598 207.756,159.400 207.367 C 155.007 207.159,153.200 206.696,153.200 205.779 C 153.200 204.853,155.219 204.811,199.600 204.811 C 244.364 204.811,246.000 204.847,246.000 205.823 C 246.000 206.675,245.187 206.971,242.000 207.279 C 233.156 208.132,229.223 208.775,227.505 209.647 C 227.123 209.841,226.459 210.000,226.029 210.000 C 225.599 210.000,225.136 210.180,225.000 210.400 C 224.864 210.620,224.403 210.800,223.976 210.800 C 223.549 210.800,223.200 210.980,223.200 211.200 C 223.200 211.420,222.949 211.600,222.643 211.600 C 221.660 211.600,218.120 215.133,217.252 216.979 C 215.412 220.893,215.435 220.405,215.213 259.195 C 214.971 301.233,215.248 298.466,211.730 293.993 C 210.097 291.917,206.843 287.818,205.067 285.600 C 204.803 285.270,204.051 284.280,203.396 283.400 C 202.740 282.520,202.107 281.710,201.989 281.600 C 201.870 281.490,201.091 280.556,200.258 279.524 C 198.537 277.393,198.939 277.375,193.800 279.814 C 187.675 282.720,184.258 284.264,182.800 284.783 C 181.016 285.417,179.587 285.998,178.705 286.447 C 178.323 286.641,177.684 286.800,177.285 286.800 C 176.886 286.800,176.389 286.955,176.180 287.144 C 175.971 287.333,174.810 287.806,173.600 288.195 C 172.390 288.583,170.987 289.058,170.481 289.250 C 169.976 289.443,169.131 289.600,168.605 289.600 C 168.078 289.600,167.548 289.761,167.426 289.958 C 167.305 290.155,166.529 290.410,165.703 290.525 C 164.876 290.640,163.390 290.932,162.400 291.173 C 150.374 294.101,130.172 294.876,120.000 292.800 C 115.718 291.926,112.551 291.136,111.905 290.782 C 111.523 290.572,110.769 290.400,110.229 290.400 C 109.689 290.400,109.136 290.220,109.000 290.000 C 108.864 289.780,108.401 289.600,107.971 289.600 C 107.541 289.600,106.877 289.435,106.495 289.234 C 106.113 289.032,105.080 288.573,104.200 288.214 C 103.320 287.855,102.287 287.390,101.905 287.181 C 101.523 286.971,100.938 286.800,100.605 286.800 C 100.272 286.800,100.000 286.620,100.000 286.400 C 100.000 286.180,99.741 286.000,99.425 286.000 C 98.844 286.000,95.460 284.253,92.708 282.533 C 91.887 282.020,91.047 281.600,90.841 281.600 C 90.635 281.600,90.407 281.450,90.333 281.267 C 90.260 281.084,89.183 280.288,87.941 279.498 C 86.699 278.708,85.349 277.793,84.941 277.463 C 84.533 277.133,83.030 275.931,81.600 274.791 C 78.734 272.506,68.800 262.483,68.800 261.876 C 68.800 261.666,68.479 261.203,68.086 260.847 C 67.083 259.937,64.400 256.177,64.400 255.680 C 64.400 255.453,64.250 255.207,64.067 255.133 C 62.444 254.484,52.794 234.265,52.799 231.524 C 52.799 231.152,52.620 230.736,52.400 230.600 C 52.180 230.464,52.000 229.834,52.000 229.200 C 52.000 228.566,51.820 227.936,51.600 227.800 C 51.380 227.664,51.200 227.171,51.200 226.705 C 51.200 226.238,51.032 225.304,50.826 224.628 C 48.999 218.629,47.829 208.569,47.823 198.800 C 47.816 187.816,48.632 182.043,51.982 169.400 C 52.405 167.803,54.682 161.261,55.254 160.000 C 55.503 159.450,55.835 158.640,55.991 158.200 C 56.634 156.385,62.998 144.000,63.287 144.000 C 63.459 144.000,63.600 143.814,63.600 143.587 C 63.600 143.092,67.246 137.457,67.689 137.267 C 67.860 137.193,68.000 136.878,68.000 136.567 C 68.000 136.255,68.141 136.000,68.314 136.000 C 68.486 136.000,68.922 135.505,69.283 134.900 C 69.643 134.295,70.267 133.438,70.669 132.996 C 71.071 132.554,72.113 131.294,72.985 130.196 C 75.069 127.571,85.357 117.283,87.400 115.781 C 88.280 115.134,89.090 114.496,89.200 114.364 C 89.623 113.855,98.727 107.694,100.419 106.771 C 101.399 106.237,102.290 105.710,102.400 105.600 C 102.839 105.161,108.633 102.388,109.100 102.394 C 109.375 102.397,109.600 102.220,109.600 102.000 C 109.600 101.780,109.836 101.600,110.125 101.600 C 110.414 101.600,111.371 101.252,112.252 100.826 C 113.133 100.400,114.338 99.930,114.931 99.782 C 115.523 99.633,116.106 99.351,116.227 99.156 C 116.348 98.960,116.876 98.800,117.400 98.800 C 117.924 98.800,118.464 98.620,118.600 98.400 C 118.736 98.180,119.276 98.000,119.800 98.000 C 120.324 98.000,120.852 97.840,120.973 97.644 C 121.094 97.449,121.779 97.201,122.496 97.095 C 123.213 96.988,125.150 96.546,126.800 96.112 C 130.998 95.007,134.345 94.404,136.424 94.377 C 137.401 94.364,138.920 94.195,139.800 94.000 C 141.635 93.594,151.587 93.802,157.200 94.364 M289.200 94.351 C 292.876 94.851,295.822 95.435,298.600 96.216 C 299.920 96.586,301.497 96.980,302.105 97.091 C 302.713 97.202,303.308 97.451,303.429 97.646 C 303.549 97.841,304.089 98.000,304.629 98.000 C 305.169 98.000,305.923 98.170,306.305 98.379 C 306.687 98.587,308.080 99.139,309.400 99.605 C 314.722 101.483,326.331 107.575,327.600 109.155 C 327.710 109.292,328.456 109.894,329.259 110.491 L 330.718 111.578 334.828 103.289 C 339.778 93.305,341.152 91.567,341.776 94.500 C 342.429 97.566,343.247 162.553,342.645 163.527 C 342.245 164.175,340.846 163.583,340.588 162.657 C 340.331 161.732,339.719 160.217,339.153 159.105 C 338.959 158.723,338.800 158.084,338.800 157.685 C 338.800 157.286,338.649 156.789,338.464 156.580 C 338.279 156.371,337.892 155.570,337.604 154.800 C 337.316 154.030,336.819 152.770,336.499 152.000 C 336.180 151.230,335.776 150.240,335.601 149.800 C 335.245 148.902,333.705 145.505,332.439 142.825 C 331.977 141.849,331.600 140.814,331.600 140.525 C 331.600 140.236,331.420 140.000,331.200 140.000 C 330.980 140.000,330.800 139.736,330.800 139.414 C 330.800 139.092,330.377 138.057,329.859 137.114 C 329.342 136.171,328.378 134.410,327.717 133.200 C 327.055 131.990,326.088 130.280,325.568 129.400 C 324.537 127.658,319.215 119.924,318.823 119.600 C 318.691 119.490,317.686 118.335,316.591 117.033 C 312.045 111.630,304.039 105.209,299.300 103.165 C 298.585 102.857,298.000 102.469,298.000 102.302 C 298.000 102.136,297.728 102.000,297.395 102.000 C 297.062 102.000,296.477 101.835,296.095 101.634 C 291.114 99.007,282.872 97.326,273.800 97.087 C 270.631 97.004,264.429 97.630,264.163 98.060 C 264.047 98.247,263.421 98.400,262.771 98.400 C 262.121 98.400,261.277 98.558,260.895 98.751 C 260.513 98.944,259.480 99.330,258.600 99.608 C 256.984 100.120,253.275 101.700,251.800 102.505 C 251.360 102.745,250.637 103.135,250.194 103.371 C 249.751 103.607,248.823 104.205,248.133 104.700 C 247.442 105.195,246.771 105.600,246.643 105.600 C 246.379 105.600,246.033 105.870,242.400 108.920 C 235.519 114.696,229.559 122.570,227.200 129.000 C 227.039 129.440,226.716 130.250,226.482 130.800 C 226.248 131.350,225.670 132.880,225.198 134.200 C 224.726 135.520,224.102 137.140,223.813 137.800 C 223.523 138.460,223.170 139.345,223.030 139.767 C 222.357 141.782,222.082 138.842,221.881 127.523 L 221.664 115.247 223.132 113.966 C 226.757 110.804,237.767 104.146,243.000 101.952 C 248.844 99.502,250.684 98.800,251.264 98.800 C 251.643 98.800,252.064 98.620,252.200 98.400 C 252.336 98.180,252.966 98.000,253.600 98.000 C 254.234 98.000,254.864 97.820,255.000 97.600 C 255.136 97.380,255.678 97.200,256.205 97.200 C 256.731 97.200,257.576 97.038,258.081 96.840 C 258.930 96.508,261.824 95.861,267.131 94.819 C 268.302 94.588,270.282 94.390,271.531 94.377 C 272.779 94.364,274.520 94.195,275.400 94.000 C 277.190 93.605,285.215 93.808,289.200 94.351 M348.820 239.425 C 350.166 239.916,350.394 241.003,349.538 242.852 C 347.934 246.316,345.079 251.822,344.347 252.862 C 343.936 253.446,343.600 254.039,343.600 254.179 C 343.600 254.591,337.012 264.449,335.566 266.200 C 331.073 271.642,320.007 281.600,318.452 281.600 C 318.204 281.600,317.999 281.735,317.997 281.900 C 317.993 282.481,308.914 287.268,305.000 288.753 C 303.680 289.254,302.287 289.830,301.905 290.032 C 301.523 290.234,300.794 290.400,300.285 290.400 C 299.776 290.400,299.189 290.547,298.980 290.726 C 298.643 291.015,295.925 291.722,291.000 292.803 C 283.584 294.430,265.351 294.171,256.200 292.309 C 254.000 291.862,251.613 291.409,250.896 291.304 C 250.179 291.198,249.494 290.951,249.373 290.756 C 249.252 290.560,248.544 290.400,247.800 290.400 C 247.056 290.400,246.336 290.220,246.200 290.000 C 246.064 289.780,245.524 289.600,245.000 289.600 C 244.476 289.600,243.936 289.420,243.800 289.200 C 243.664 288.980,243.226 288.800,242.827 288.800 C 241.655 288.800,231.314 284.041,230.261 283.017 C 230.008 282.770,228.450 281.626,226.800 280.476 C 225.150 279.325,223.298 277.970,222.684 277.464 L 221.568 276.544 221.591 259.285 C 221.604 249.793,221.721 241.751,221.850 241.413 C 222.165 240.593,222.771 240.636,223.056 241.500 C 223.183 241.885,223.645 243.010,224.082 244.000 C 225.277 246.704,226.047 248.509,226.385 249.400 C 226.552 249.840,227.372 251.550,228.208 253.200 C 229.044 254.850,229.924 256.604,230.164 257.097 C 230.404 257.590,230.735 257.995,230.900 257.997 C 231.065 257.999,231.200 258.178,231.200 258.395 C 231.200 258.831,231.552 259.290,234.852 263.160 C 239.175 268.228,248.916 276.800,250.354 276.800 C 250.563 276.800,250.793 276.935,250.867 277.100 C 251.068 277.554,256.387 280.356,260.400 282.123 C 261.735 282.711,267.423 284.466,270.400 285.210 C 277.568 286.999,292.170 286.483,300.800 284.135 C 303.750 283.332,304.833 282.961,308.100 281.635 C 311.548 280.235,317.755 276.956,318.955 275.900 C 319.393 275.515,319.884 275.200,320.047 275.200 C 320.210 275.200,320.581 274.975,320.871 274.700 C 321.162 274.425,322.414 273.429,323.654 272.487 C 326.135 270.601,332.344 264.315,334.209 261.800 C 334.861 260.920,335.486 260.110,335.598 260.000 C 335.933 259.668,339.600 254.023,339.600 253.838 C 339.600 253.743,340.410 252.296,341.400 250.622 C 342.390 248.947,343.200 247.497,343.200 247.398 C 343.200 247.300,343.740 246.041,344.400 244.600 C 345.060 243.159,345.600 241.871,345.600 241.737 C 345.600 241.045,347.352 238.793,347.744 238.981 C 347.995 239.101,348.479 239.301,348.820 239.425 " stroke="none" fill="#fbfbfb" fill-rule="evenodd"></path><path id="path2" d="M392.000 200.520 L 392.200 392.200 392.300 200.820 C 392.356 95.562,392.266 9.306,392.100 9.140 C 391.935 8.975,391.890 95.096,392.000 200.520 M141.600 94.425 C 139.461 94.567,141.315 94.661,146.600 94.679 C 151.220 94.695,154.730 94.649,154.400 94.577 C 153.157 94.307,144.868 94.209,141.600 94.425 M277.800 94.423 C 274.530 94.604,275.077 94.651,280.800 94.676 C 287.655 94.707,288.984 94.569,284.200 94.323 C 282.880 94.255,280.000 94.300,277.800 94.423 M339.826 94.771 C 339.036 95.645,337.122 99.255,337.336 99.469 C 337.410 99.544,338.005 98.568,338.657 97.302 C 339.580 95.511,340.040 95.007,340.732 95.033 C 341.222 95.051,341.561 94.882,341.486 94.658 C 341.240 93.920,340.554 93.967,339.826 94.771 M214.096 94.900 C 213.498 95.645,211.555 99.600,211.788 99.600 C 211.898 99.600,212.534 98.520,213.200 97.200 C 215.274 93.091,215.553 93.830,215.684 103.800 L 215.779 111.000 215.910 104.400 C 216.089 95.340,215.639 92.979,214.096 94.900 M133.000 95.200 L 131.800 95.505 133.000 95.513 C 133.660 95.517,134.650 95.376,135.200 95.200 L 136.200 94.880 135.200 94.887 C 134.650 94.891,133.660 95.032,133.000 95.200 M158.600 95.223 C 159.480 95.405,160.650 95.544,161.200 95.531 C 161.841 95.516,161.626 95.389,160.600 95.177 C 159.720 94.995,158.550 94.856,158.000 94.869 C 157.359 94.884,157.574 95.011,158.600 95.223 M267.800 95.200 L 266.600 95.505 267.800 95.505 C 268.460 95.505,269.540 95.368,270.200 95.200 L 271.400 94.895 270.200 94.895 C 269.540 94.895,268.460 95.032,267.800 95.200 M290.200 95.200 C 291.892 95.631,293.344 95.631,292.000 95.200 C 291.450 95.024,290.550 94.883,290.000 94.887 C 289.102 94.894,289.122 94.926,290.200 95.200 M127.600 96.220 C 126.420 96.558,126.144 96.736,126.800 96.737 C 127.350 96.738,128.520 96.501,129.400 96.211 C 131.456 95.534,129.971 95.541,127.600 96.220 M164.400 96.000 C 165.768 96.438,166.819 96.438,165.800 96.000 C 165.360 95.811,164.640 95.662,164.200 95.668 C 163.557 95.677,163.596 95.743,164.400 96.000 M263.000 96.000 L 262.200 96.344 263.000 96.332 C 263.440 96.326,264.250 96.176,264.800 96.000 L 265.800 95.680 264.800 95.668 C 264.250 95.662,263.440 95.811,263.000 96.000 M295.600 96.221 C 296.590 96.533,297.760 96.778,298.200 96.767 C 298.640 96.755,298.100 96.496,297.000 96.191 C 294.385 95.465,293.276 95.488,295.600 96.221 M136.476 96.740 C 135.968 96.883,139.378 97.000,144.054 97.000 C 148.729 97.000,152.025 96.886,151.377 96.747 C 149.820 96.413,137.658 96.407,136.476 96.740 M168.200 96.843 C 171.383 97.542,172.689 97.641,170.600 97.025 C 169.500 96.701,168.150 96.448,167.600 96.464 C 166.925 96.483,167.120 96.606,168.200 96.843 M267.118 96.728 C 266.743 96.878,269.974 97.000,274.299 97.000 C 278.624 97.000,281.631 96.886,280.981 96.747 C 279.378 96.404,267.970 96.389,267.118 96.728 M299.600 97.182 C 299.930 97.405,300.545 97.591,300.967 97.594 C 301.990 97.602,301.671 97.373,300.200 97.044 C 299.324 96.848,299.162 96.885,299.600 97.182 M131.600 97.606 C 131.178 97.882,131.415 97.923,132.400 97.742 C 134.125 97.425,134.451 97.198,133.167 97.206 C 132.635 97.209,131.930 97.389,131.600 97.606 M154.800 97.600 C 156.342 98.094,157.164 98.094,156.400 97.600 C 156.070 97.387,155.350 97.227,154.800 97.246 L 153.800 97.280 154.800 97.600 M262.800 97.618 C 262.362 97.915,262.524 97.952,263.400 97.756 C 264.871 97.427,265.190 97.198,264.167 97.206 C 263.745 97.209,263.130 97.395,262.800 97.618 M283.233 97.343 C 283.325 97.422,284.120 97.597,285.000 97.732 C 286.090 97.899,286.409 97.855,286.000 97.595 C 285.453 97.246,282.845 97.009,283.233 97.343 M121.000 98.000 C 120.229 98.331,120.231 98.345,121.076 98.372 C 121.558 98.387,122.064 98.220,122.200 98.000 C 122.492 97.527,122.101 97.527,121.000 98.000 M173.000 98.000 C 173.136 98.220,173.642 98.387,174.124 98.372 C 174.969 98.345,174.971 98.331,174.200 98.000 C 173.099 97.527,172.708 97.527,173.000 98.000 M127.200 98.659 C 125.723 99.253,126.626 99.165,129.200 98.463 C 130.289 98.167,130.378 98.083,129.600 98.089 C 129.050 98.092,127.970 98.349,127.200 98.659 M160.000 98.782 C 160.330 99.005,160.945 99.191,161.367 99.194 C 162.390 99.202,162.071 98.973,160.600 98.644 C 159.724 98.448,159.562 98.485,160.000 98.782 M289.600 98.782 C 289.930 99.005,290.545 99.191,290.967 99.194 C 291.990 99.202,291.671 98.973,290.200 98.644 C 289.324 98.448,289.162 98.485,289.600 98.782 M246.200 100.991 C 245.100 101.509,244.380 101.937,244.600 101.942 C 244.820 101.947,245.900 101.527,247.000 101.009 C 248.100 100.491,248.820 100.063,248.600 100.058 C 248.380 100.053,247.300 100.473,246.200 100.991 M311.152 101.009 C 312.335 101.570,313.378 101.956,313.468 101.865 C 313.559 101.774,312.861 101.388,311.917 101.006 C 309.180 99.900,308.817 99.901,311.152 101.009 M119.693 101.380 C 118.100 102.260,118.148 102.506,119.779 101.829 C 120.648 101.469,121.443 101.090,121.546 100.987 C 121.926 100.608,120.571 100.894,119.693 101.380 M166.454 100.987 C 166.790 101.323,169.600 102.416,169.600 102.211 C 169.600 102.101,168.948 101.738,168.151 101.405 C 166.675 100.789,166.118 100.651,166.454 100.987 M299.141 102.605 C 300.098 103.152,300.998 103.594,301.141 103.588 C 301.555 103.568,298.243 101.604,297.800 101.607 C 297.580 101.608,298.183 102.057,299.141 102.605 M249.097 103.166 C 247.498 104.191,247.203 104.606,248.600 103.866 C 250.276 102.977,251.071 102.408,250.600 102.435 C 250.380 102.448,249.704 102.777,249.097 103.166 M172.400 103.779 C 172.400 103.889,172.940 104.259,173.600 104.600 C 174.260 104.941,174.800 105.131,174.800 105.021 C 174.800 104.911,174.260 104.541,173.600 104.200 C 172.940 103.859,172.400 103.669,172.400 103.779 M188.800 103.797 C 188.800 104.068,192.049 105.684,192.230 105.503 C 192.314 105.419,191.576 104.959,190.591 104.481 C 189.606 104.002,188.800 103.694,188.800 103.797 M238.302 104.504 C 237.479 104.963,236.863 105.396,236.933 105.466 C 237.101 105.634,240.400 104.039,240.400 103.791 C 240.400 103.458,239.842 103.648,238.302 104.504 M301.600 103.719 C 301.600 103.828,302.545 104.513,303.700 105.241 C 306.207 106.822,308.748 108.766,311.198 110.977 L 312.996 112.600 311.602 111.082 C 309.454 108.743,301.600 102.961,301.600 103.719 M317.600 103.779 C 317.600 103.889,318.140 104.259,318.800 104.600 C 319.460 104.941,320.000 105.131,320.000 105.021 C 320.000 104.911,319.460 104.541,318.800 104.200 C 318.140 103.859,317.600 103.669,317.600 103.779 M333.798 106.286 C 333.410 107.119,332.842 108.295,332.536 108.900 C 332.230 109.505,332.075 110.000,332.193 110.000 C 332.474 110.000,334.840 105.107,334.651 104.918 C 334.571 104.837,334.187 105.453,333.798 106.286 M109.200 107.758 C 107.330 109.166,105.350 110.826,104.800 111.447 C 104.018 112.331,104.149 112.274,105.400 111.186 C 106.280 110.420,108.305 108.825,109.900 107.642 C 112.447 105.752,113.080 105.200,112.700 105.200 C 112.645 105.200,111.070 106.351,109.200 107.758 M242.978 107.479 C 240.304 109.673,235.967 113.751,237.988 112.172 C 238.531 111.747,239.174 111.220,239.417 111.000 C 240.144 110.343,244.124 106.936,245.200 106.050 C 245.750 105.597,246.100 105.221,245.978 105.213 C 245.856 105.206,244.506 106.226,242.978 107.479 M101.800 106.400 C 101.140 106.837,100.780 107.192,101.000 107.188 C 101.401 107.182,103.576 105.623,103.200 105.612 C 103.090 105.608,102.460 105.963,101.800 106.400 M193.600 106.364 C 194.150 106.814,194.780 107.183,195.000 107.185 C 195.428 107.188,194.705 106.634,193.400 105.960 C 192.869 105.685,192.936 105.821,193.600 106.364 M207.400 107.600 C 206.843 108.700,206.477 109.600,206.587 109.600 C 206.697 109.600,207.243 108.700,207.800 107.600 C 208.357 106.500,208.723 105.600,208.613 105.600 C 208.503 105.600,207.957 106.500,207.400 107.600 M235.000 106.400 C 234.340 106.837,233.980 107.192,234.200 107.188 C 234.601 107.182,236.776 105.623,236.400 105.612 C 236.290 105.608,235.660 105.963,235.000 106.400 M341.727 115.200 C 341.715 120.590,341.828 128.420,341.980 132.600 L 342.255 140.200 342.272 132.800 C 342.281 128.730,342.167 120.900,342.019 115.400 L 341.751 105.400 341.727 115.200 M195.600 107.345 C 195.600 107.567,200.771 110.800,201.123 110.798 C 201.456 110.796,198.250 108.602,196.700 107.770 C 196.095 107.445,195.600 107.254,195.600 107.345 M179.600 108.149 C 179.600 108.235,180.230 108.786,181.000 109.373 C 181.770 109.960,182.398 110.297,182.395 110.120 C 182.392 109.944,181.762 109.393,180.995 108.896 C 180.228 108.399,179.600 108.063,179.600 108.149 M94.600 110.832 C 93.060 111.933,91.530 113.130,91.200 113.492 C 90.870 113.854,91.309 113.632,92.175 112.998 C 93.041 112.364,94.661 111.234,95.775 110.485 C 98.123 108.908,98.259 108.795,97.767 108.815 C 97.565 108.824,96.140 109.731,94.600 110.832 M326.400 108.906 C 326.400 108.994,327.165 109.674,328.100 110.417 C 329.035 111.160,329.546 111.452,329.236 111.065 C 328.651 110.337,326.400 108.623,326.400 108.906 M184.600 112.122 C 185.700 113.113,186.668 113.858,186.750 113.778 C 186.916 113.618,184.749 111.712,183.434 110.860 C 182.975 110.563,183.500 111.131,184.600 112.122 M331.272 111.234 C 330.998 111.672,330.572 111.906,330.325 111.754 C 330.039 111.577,329.989 111.658,330.187 111.979 C 330.420 112.357,330.702 112.276,331.326 111.651 C 331.782 111.195,332.069 110.735,331.963 110.629 C 331.857 110.523,331.546 110.795,331.272 111.234 M201.600 111.108 C 201.600 111.309,202.206 111.801,202.948 112.200 C 204.341 112.950,205.624 112.809,205.568 111.913 C 205.544 111.511,205.493 111.508,205.335 111.900 C 205.033 112.650,203.839 112.503,202.654 111.571 C 202.074 111.115,201.600 110.907,201.600 111.108 M224.300 113.459 L 222.000 115.257 222.091 123.128 L 222.182 131.000 222.300 123.239 C 222.430 114.641,222.224 115.313,225.406 113.146 C 226.170 112.626,226.796 112.065,226.797 111.900 C 226.801 111.492,226.886 111.439,224.300 113.459 M235.421 114.729 L 234.243 116.200 235.721 114.822 C 237.249 113.397,237.410 113.180,236.900 113.229 C 236.735 113.245,236.070 113.920,235.421 114.729 M101.400 114.543 C 101.180 114.797,100.137 115.977,99.083 117.165 C 98.028 118.353,96.802 119.882,96.358 120.562 C 95.803 121.412,95.965 121.303,96.875 120.213 C 97.604 119.339,99.083 117.672,100.162 116.508 C 101.241 115.344,102.051 114.321,101.962 114.236 C 101.873 114.151,101.620 114.289,101.400 114.543 M190.400 117.400 C 192.260 119.270,193.872 120.800,193.982 120.800 C 194.092 120.800,192.660 119.270,190.800 117.400 C 188.940 115.530,187.328 114.000,187.218 114.000 C 187.108 114.000,188.540 115.530,190.400 117.400 M314.817 114.271 C 314.827 114.452,315.934 115.770,317.277 117.200 L 319.719 119.800 317.764 117.400 C 315.361 114.450,314.795 113.849,314.817 114.271 M86.197 117.468 L 83.800 119.676 86.200 117.750 C 87.520 116.692,88.675 115.775,88.767 115.713 C 88.858 115.651,88.857 115.524,88.763 115.430 C 88.670 115.337,87.515 116.253,86.197 117.468 M216.126 120.800 C 216.116 123.550,216.231 128.680,216.382 132.200 L 216.656 138.600 216.674 133.600 C 216.684 130.850,216.569 125.720,216.418 122.200 L 216.144 115.800 216.126 120.800 M233.360 117.300 C 231.718 119.194,229.926 121.660,230.080 121.813 C 230.168 121.901,231.166 120.719,232.299 119.187 C 234.385 116.363,234.779 115.662,233.360 117.300 M322.014 123.324 C 323.378 125.236,324.573 126.800,324.671 126.800 C 324.948 126.800,320.795 120.894,320.130 120.342 C 319.803 120.070,320.651 121.412,322.014 123.324 M79.400 123.600 C 77.650 125.360,76.340 126.800,76.488 126.800 C 76.636 126.800,77.858 125.675,79.205 124.300 C 82.259 121.182,82.970 120.400,82.753 120.400 C 82.658 120.400,81.150 121.840,79.400 123.600 M195.600 123.200 C 197.237 125.156,198.161 125.924,197.123 124.466 C 196.120 123.060,194.450 121.200,194.189 121.200 C 194.044 121.200,194.679 122.100,195.600 123.200 M94.000 123.800 C 93.319 124.790,92.852 125.600,92.962 125.600 C 93.072 125.600,93.719 124.790,94.400 123.800 C 95.081 122.810,95.548 122.000,95.438 122.000 C 95.328 122.000,94.681 122.810,94.000 123.800 M227.231 127.024 C 226.752 128.043,226.444 129.085,226.548 129.339 C 226.675 129.649,226.747 129.630,226.768 129.281 C 226.786 128.995,227.159 128.019,227.597 127.111 C 228.036 126.204,228.329 125.395,228.249 125.315 C 228.168 125.235,227.710 126.004,227.231 127.024 M73.911 129.700 C 70.813 133.292,69.080 135.600,69.480 135.600 C 69.671 135.600,70.122 135.105,70.483 134.500 C 70.843 133.895,71.467 133.037,71.869 132.594 C 73.649 130.630,76.444 127.200,76.265 127.200 C 76.156 127.200,75.097 128.325,73.911 129.700 M90.823 128.650 C 90.353 129.448,90.033 130.166,90.113 130.246 C 90.192 130.326,90.661 129.673,91.154 128.796 C 92.275 126.802,91.988 126.677,90.823 128.650 M200.400 129.400 C 201.081 130.390,201.728 131.200,201.838 131.200 C 201.948 131.200,201.481 130.390,200.800 129.400 C 200.119 128.410,199.472 127.600,199.362 127.600 C 199.252 127.600,199.719 128.410,200.400 129.400 M325.560 128.600 C 326.234 129.905,326.788 130.628,326.785 130.200 C 326.783 129.980,326.414 129.350,325.964 128.800 C 325.421 128.136,325.285 128.069,325.560 128.600 M89.014 131.835 C 88.641 132.404,88.427 132.961,88.539 133.072 C 88.650 133.183,89.029 132.718,89.381 132.037 C 90.159 130.533,89.944 130.415,89.014 131.835 M329.000 134.800 C 329.341 135.460,329.711 136.000,329.821 136.000 C 329.931 136.000,329.741 135.460,329.400 134.800 C 329.059 134.140,328.689 133.600,328.579 133.600 C 328.469 133.600,328.659 134.140,329.000 134.800 M224.065 135.017 C 223.809 135.578,223.607 136.254,223.616 136.519 C 223.624 136.783,223.897 136.388,224.222 135.639 C 224.905 134.065,224.761 133.490,224.065 135.017 M204.445 135.404 C 204.841 136.438,206.946 139.987,207.083 139.850 C 207.167 139.766,206.669 138.730,205.976 137.548 C 204.742 135.446,204.136 134.597,204.445 135.404 M67.200 138.400 C 66.304 139.720,65.660 140.800,65.770 140.800 C 65.880 140.800,66.704 139.720,67.600 138.400 C 68.496 137.080,69.140 136.000,69.030 136.000 C 68.920 136.000,68.096 137.080,67.200 138.400 M330.028 136.600 C 330.028 136.820,330.286 137.450,330.600 138.000 C 330.914 138.550,331.172 138.820,331.172 138.600 C 331.172 138.380,330.914 137.750,330.600 137.200 C 330.286 136.650,330.028 136.380,330.028 136.600 M86.400 136.884 C 86.400 137.004,86.128 137.754,85.795 138.551 C 85.462 139.348,85.279 140.000,85.389 140.000 C 85.706 140.000,86.833 137.100,86.605 136.872 C 86.492 136.759,86.400 136.765,86.400 136.884 M222.682 138.300 C 222.389 139.823,222.622 139.885,223.133 138.420 C 223.367 137.749,223.409 137.200,223.226 137.200 C 223.043 137.200,222.798 137.695,222.682 138.300 M208.483 142.987 C 209.185 144.410,209.825 145.508,209.906 145.428 C 210.085 145.249,207.666 140.400,207.398 140.400 C 207.293 140.400,207.782 141.564,208.483 142.987 M63.695 143.823 C 63.203 144.574,62.800 145.323,62.800 145.487 C 62.800 145.651,63.266 145.100,63.836 144.262 C 64.405 143.424,64.808 142.675,64.731 142.598 C 64.654 142.520,64.188 143.072,63.695 143.823 M333.600 144.084 C 333.600 144.516,334.815 147.200,335.011 147.200 C 335.121 147.200,334.933 146.534,334.593 145.721 C 333.993 144.286,333.600 143.638,333.600 144.084 M82.074 148.159 C 81.593 149.560,81.208 150.951,81.218 151.253 C 81.227 151.554,81.688 150.476,82.241 148.857 C 82.795 147.239,83.180 145.847,83.098 145.764 C 83.015 145.682,82.554 146.759,82.074 148.159 M216.941 153.890 C 216.991 159.709,216.907 160.806,216.400 160.944 C 215.957 161.064,215.987 161.119,216.513 161.154 C 217.555 161.221,217.592 160.833,217.221 153.600 L 216.882 147.000 216.941 153.890 M59.626 151.148 C 57.956 154.457,58.088 154.813,59.804 151.628 C 60.566 150.214,61.114 148.980,61.021 148.888 C 60.928 148.795,60.301 149.812,59.626 151.148 M337.214 152.454 C 337.206 152.594,337.463 153.314,337.784 154.054 C 338.106 154.794,338.369 155.130,338.370 154.800 C 338.372 154.224,337.243 151.934,337.214 152.454 M338.789 156.763 C 338.975 157.411,339.337 158.269,339.594 158.671 C 340.027 159.347,340.040 159.342,339.779 158.600 C 339.624 158.160,339.409 157.392,339.301 156.894 C 339.193 156.396,338.958 155.897,338.778 155.786 C 338.598 155.675,338.603 156.115,338.789 156.763 M342.528 160.000 C 342.528 161.430,342.601 162.015,342.689 161.300 C 342.778 160.585,342.778 159.415,342.689 158.700 C 342.601 157.985,342.528 158.570,342.528 160.000 M79.000 158.800 C 78.850 159.273,78.817 159.750,78.927 159.860 C 79.037 159.970,79.250 159.673,79.400 159.200 C 79.550 158.727,79.583 158.250,79.473 158.140 C 79.363 158.030,79.150 158.327,79.000 158.800 M78.449 161.400 C 78.416 161.840,78.296 162.650,78.183 163.200 L 77.977 164.200 78.406 163.219 C 78.642 162.679,78.761 161.869,78.672 161.419 C 78.513 160.621,78.507 160.621,78.449 161.400 M54.491 162.900 C 53.810 164.784,53.904 165.294,54.626 163.630 C 54.953 162.877,55.166 162.099,55.101 161.902 C 55.035 161.705,54.760 162.154,54.491 162.900 M340.800 162.409 C 340.800 162.638,341.078 162.932,341.417 163.062 C 342.355 163.422,342.466 163.033,341.582 162.481 C 341.087 162.172,340.800 162.146,340.800 162.409 M77.693 165.600 C 77.693 166.370,77.775 166.685,77.876 166.300 C 77.976 165.915,77.976 165.285,77.876 164.900 C 77.775 164.515,77.693 164.830,77.693 165.600 M77.056 168.084 C 76.921 168.588,76.830 169.540,76.853 170.200 C 76.881 171.028,76.997 170.784,77.226 169.413 C 77.576 167.323,77.474 166.526,77.056 168.084 M76.256 173.684 C 76.121 174.188,76.030 175.320,76.054 176.200 C 76.092 177.578,76.146 177.471,76.443 175.428 C 76.798 172.999,76.695 172.046,76.256 173.684 M49.778 179.778 C 49.627 180.581,49.594 181.327,49.704 181.437 C 49.814 181.547,50.027 180.981,50.178 180.178 C 50.328 179.375,50.362 178.628,50.252 178.518 C 50.142 178.408,49.928 178.975,49.778 179.778 M75.489 181.356 C 75.330 182.432,75.223 184.142,75.252 185.156 C 75.294 186.666,75.368 186.457,75.659 184.000 C 76.065 180.569,75.926 178.401,75.489 181.356 M49.015 185.015 C 48.861 186.254,48.817 187.350,48.919 187.452 C 49.020 187.554,49.230 186.623,49.385 185.385 C 49.539 184.146,49.583 183.050,49.481 182.948 C 49.380 182.846,49.170 183.777,49.015 185.015 M48.284 194.900 C 48.157 197.595,48.193 201.600,48.364 203.800 C 48.636 207.275,48.685 206.631,48.738 198.900 C 48.807 188.995,48.636 187.489,48.284 194.900 M153.818 205.571 C 153.453 206.161,154.145 206.392,156.866 206.587 L 159.400 206.770 157.009 206.388 C 155.694 206.178,154.434 205.929,154.209 205.835 C 153.984 205.740,174.410 205.652,199.600 205.638 C 231.988 205.620,245.224 205.737,244.800 206.037 C 244.403 206.318,244.379 206.413,244.730 206.320 C 245.022 206.243,245.292 206.005,245.330 205.790 C 245.424 205.269,154.140 205.050,153.818 205.571 M163.600 207.210 C 173.671 208.047,173.364 208.036,169.200 207.413 C 167.110 207.100,164.230 206.863,162.800 206.886 C 160.224 206.926,160.231 206.929,163.600 207.210 M234.600 207.440 L 231.800 207.972 234.200 207.743 C 235.520 207.617,237.680 207.378,239.000 207.212 L 241.400 206.909 239.400 206.909 C 238.300 206.908,236.140 207.147,234.600 207.440 M75.223 209.433 C 75.236 210.515,75.403 212.120,75.595 213.000 C 75.844 214.143,75.880 213.628,75.721 211.200 C 75.472 207.412,75.188 206.403,75.223 209.433 M174.800 208.400 C 175.350 208.576,176.340 208.717,177.000 208.713 L 178.200 208.705 177.000 208.400 C 176.340 208.232,175.350 208.091,174.800 208.087 L 173.800 208.080 174.800 208.400 M229.000 208.400 C 228.496 208.617,228.422 208.744,228.800 208.744 C 229.130 208.744,229.760 208.589,230.200 208.400 C 230.704 208.183,230.778 208.056,230.400 208.056 C 230.070 208.056,229.440 208.211,229.000 208.400 M179.800 209.200 C 180.240 209.389,180.960 209.544,181.400 209.544 L 182.200 209.544 181.400 209.200 C 180.960 209.011,180.240 208.856,179.800 208.856 L 179.000 208.856 179.800 209.200 M48.893 211.600 C 48.895 213.365,49.491 215.988,49.530 214.400 C 49.543 213.850,49.405 212.680,49.223 211.800 L 48.892 210.200 48.893 211.600 M186.346 211.016 C 187.086 211.337,187.806 211.594,187.946 211.586 C 188.466 211.557,186.176 210.428,185.600 210.430 C 185.270 210.431,185.606 210.694,186.346 211.016 M189.543 212.630 C 190.281 213.232,191.406 214.444,192.043 215.322 C 192.679 216.201,193.200 216.775,193.200 216.598 C 193.200 215.723,190.530 212.775,189.000 211.961 C 188.560 211.727,188.804 212.028,189.543 212.630 M219.491 212.829 C 218.104 213.973,215.994 217.002,216.005 217.835 C 216.007 218.036,216.464 217.390,217.019 216.400 C 217.574 215.410,218.787 213.930,219.714 213.112 C 221.750 211.315,221.583 211.105,219.491 212.829 M76.028 217.833 C 76.044 218.695,76.217 219.760,76.414 220.200 C 76.648 220.722,76.688 220.237,76.532 218.800 C 76.243 216.158,75.989 215.670,76.028 217.833 M49.680 217.400 C 49.680 217.840,49.824 218.650,50.000 219.200 C 50.254 219.992,50.320 220.033,50.320 219.400 C 50.320 218.960,50.176 218.150,50.000 217.600 C 49.746 216.808,49.680 216.767,49.680 217.400 M215.402 219.400 C 214.969 220.854,214.474 295.602,214.900 295.338 C 215.065 295.236,215.200 278.502,215.200 258.150 C 215.200 232.780,215.334 220.898,215.625 220.353 C 215.859 219.916,215.985 219.253,215.905 218.879 C 215.807 218.418,215.645 218.585,215.402 219.400 M194.244 220.600 C 194.573 222.071,194.802 222.390,194.794 221.367 C 194.791 220.945,194.605 220.330,194.382 220.000 C 194.085 219.562,194.048 219.724,194.244 220.600 M76.828 223.233 C 76.844 223.985,77.012 224.960,77.203 225.400 C 77.426 225.915,77.467 225.487,77.318 224.200 C 77.044 221.822,76.789 221.319,76.828 223.233 M51.062 224.200 C 51.196 225.080,51.372 225.875,51.453 225.967 C 51.756 226.310,51.529 224.168,51.181 223.400 C 50.929 222.842,50.893 223.085,51.062 224.200 M195.000 238.000 C 195.000 246.166,195.117 252.432,195.260 251.924 C 195.403 251.416,195.520 245.150,195.520 238.000 C 195.520 230.850,195.403 224.584,195.260 224.076 C 195.117 223.568,195.000 229.834,195.000 238.000 M51.628 226.676 C 51.718 227.715,52.344 228.596,52.372 227.724 C 52.387 227.242,52.220 226.736,52.000 226.600 C 51.780 226.464,51.613 226.498,51.628 226.676 M53.262 232.000 C 53.261 232.330,53.606 233.320,54.029 234.200 C 54.452 235.080,54.686 235.350,54.550 234.800 C 54.175 233.295,53.266 231.316,53.262 232.000 M78.856 232.800 C 78.856 233.130,79.011 233.760,79.200 234.200 C 79.417 234.704,79.544 234.778,79.544 234.400 C 79.544 234.070,79.389 233.440,79.200 233.000 C 78.983 232.496,78.856 232.422,78.856 232.800 M54.830 236.400 C 54.828 236.976,55.957 239.266,55.986 238.746 C 55.994 238.606,55.737 237.886,55.416 237.146 C 55.094 236.406,54.831 236.070,54.830 236.400 M80.400 238.581 C 80.400 239.186,82.149 243.985,82.310 243.823 C 82.400 243.733,82.074 242.521,81.585 241.130 C 80.708 238.631,80.400 237.968,80.400 238.581 M346.051 241.780 C 344.877 244.279,345.016 244.656,346.218 242.231 C 346.755 241.148,347.129 240.196,347.049 240.115 C 346.968 240.035,346.519 240.784,346.051 241.780 M349.000 241.400 C 349.000 242.128,349.135 242.640,349.300 242.538 C 349.465 242.436,349.600 241.924,349.600 241.400 C 349.600 240.876,349.465 240.364,349.300 240.262 C 349.135 240.160,349.000 240.672,349.000 241.400 M222.249 241.815 C 222.112 242.173,222.041 250.236,222.092 259.733 L 222.184 277.000 222.392 259.200 C 222.615 240.125,222.621 240.848,222.249 241.815 M58.481 244.991 C 58.959 245.976,59.419 246.714,59.503 246.630 C 59.684 246.449,58.068 243.200,57.797 243.200 C 57.694 243.200,58.002 244.006,58.481 244.991 M348.065 244.217 C 347.395 245.688,347.523 246.002,348.247 244.665 C 348.586 244.040,348.788 243.454,348.696 243.363 C 348.605 243.271,348.321 243.656,348.065 244.217 M342.089 250.137 C 340.928 252.372,340.317 253.770,340.732 253.245 C 341.597 252.150,344.538 246.403,344.335 246.205 C 344.261 246.133,343.250 247.903,342.089 250.137 M60.186 248.300 C 60.535 249.015,60.906 249.600,61.010 249.600 C 61.408 249.600,61.152 248.963,60.367 248.000 L 59.552 247.000 60.186 248.300 M345.232 249.868 C 344.556 251.116,344.066 252.199,344.142 252.275 C 344.218 252.352,344.858 251.331,345.564 250.007 C 346.270 248.683,346.760 247.600,346.654 247.600 C 346.547 247.600,345.907 248.621,345.232 249.868 M226.402 251.062 C 226.400 251.606,228.084 254.849,228.271 254.662 C 228.342 254.592,227.950 253.649,227.401 252.567 C 226.852 251.485,226.403 250.808,226.402 251.062 M62.000 251.351 C 62.000 251.730,65.968 257.600,66.224 257.600 C 66.334 257.600,65.492 256.205,64.352 254.500 C 61.963 250.927,62.000 250.976,62.000 251.351 M85.600 252.062 C 85.600 252.488,87.967 257.048,88.578 257.800 C 88.935 258.240,88.481 257.160,87.569 255.400 C 85.930 252.239,85.600 251.680,85.600 252.062 M343.014 253.835 C 342.641 254.404,342.405 254.938,342.489 255.022 C 342.573 255.107,342.958 254.641,343.344 253.988 C 344.206 252.528,343.948 252.409,343.014 253.835 M194.229 255.429 C 194.081 256.015,194.051 256.584,194.161 256.694 C 194.271 256.804,194.481 256.415,194.629 255.829 C 194.776 255.242,194.806 254.673,194.696 254.563 C 194.586 254.453,194.376 254.842,194.229 255.429 M228.986 256.300 C 229.335 257.015,229.706 257.600,229.810 257.600 C 230.208 257.600,229.952 256.963,229.167 256.000 L 228.352 255.000 228.986 256.300 M341.284 256.700 C 340.860 257.305,340.302 258.205,340.043 258.700 C 339.200 260.310,339.850 259.650,341.124 257.600 C 342.454 255.459,342.557 254.882,341.284 256.700 M193.646 257.867 C 193.621 258.124,193.484 258.664,193.341 259.067 C 193.140 259.636,193.194 259.697,193.579 259.342 C 193.852 259.091,193.989 258.551,193.884 258.142 C 193.779 257.734,193.672 257.610,193.646 257.867 M67.536 259.623 C 68.194 260.626,69.063 261.706,69.466 262.023 C 70.154 262.564,70.162 262.550,69.600 261.813 C 67.190 258.651,66.229 257.631,67.536 259.623 M230.800 259.200 C 231.270 259.860,231.744 260.400,231.854 260.400 C 231.964 260.400,231.670 259.860,231.200 259.200 C 230.730 258.540,230.256 258.000,230.146 258.000 C 230.036 258.000,230.330 258.540,230.800 259.200 M89.245 259.000 C 89.655 260.059,91.437 262.794,91.719 262.797 C 91.895 262.799,91.461 261.945,90.754 260.900 C 89.346 258.816,89.011 258.394,89.245 259.000 M334.783 261.700 C 334.040 262.635,333.748 263.146,334.135 262.836 C 334.863 262.251,336.577 260.000,336.294 260.000 C 336.206 260.000,335.526 260.765,334.783 261.700 M337.693 262.000 C 337.418 262.440,337.331 262.800,337.500 262.800 C 337.669 262.800,338.032 262.440,338.307 262.000 C 338.582 261.560,338.669 261.200,338.500 261.200 C 338.331 261.200,337.968 261.560,337.693 262.000 M191.700 263.700 C 191.270 264.875,191.280 264.926,191.812 264.224 C 192.321 263.552,192.621 262.400,192.288 262.400 C 192.226 262.400,191.961 262.985,191.700 263.700 M71.200 264.200 C 71.946 264.970,72.629 265.600,72.718 265.600 C 73.054 265.600,70.582 262.856,70.222 262.829 C 70.013 262.813,70.454 263.430,71.200 264.200 M235.131 264.700 C 237.039 266.957,240.129 269.939,243.300 272.581 C 247.034 275.692,245.927 274.420,241.700 270.741 C 239.555 268.875,236.990 266.333,236.000 265.093 C 235.010 263.853,234.048 262.829,233.863 262.819 C 233.677 262.809,234.248 263.655,235.131 264.700 M336.000 264.400 C 335.530 265.060,335.236 265.600,335.346 265.600 C 335.456 265.600,335.930 265.060,336.400 264.400 C 336.870 263.740,337.164 263.200,337.054 263.200 C 336.944 263.200,336.470 263.740,336.000 264.400 M329.609 267.448 C 327.524 269.561,324.779 272.107,323.509 273.104 C 321.280 274.855,320.334 275.852,322.024 274.668 C 325.151 272.478,334.404 263.583,333.534 263.603 C 333.460 263.605,331.694 265.335,329.609 267.448 M93.600 265.600 C 94.070 266.260,94.544 266.800,94.654 266.800 C 94.764 266.800,94.470 266.260,94.000 265.600 C 93.530 264.940,93.056 264.400,92.946 264.400 C 92.836 264.400,93.130 264.940,93.600 265.600 M73.600 267.000 C 74.117 267.550,74.606 268.000,74.688 268.000 C 75.021 268.000,73.372 266.024,73.030 266.013 C 72.827 266.006,73.083 266.450,73.600 267.000 M333.254 267.634 C 332.513 268.495,332.063 269.185,332.254 269.166 C 332.444 269.148,333.206 268.428,333.946 267.566 C 334.687 266.705,335.137 266.015,334.946 266.034 C 334.756 266.052,333.994 266.772,333.254 267.634 M189.453 268.100 L 188.733 269.400 189.558 268.400 C 190.289 267.513,190.614 266.800,190.286 266.800 C 190.224 266.800,189.849 267.385,189.453 268.100 M95.630 268.294 C 98.318 271.326,102.737 275.769,103.800 276.508 C 104.460 276.968,103.470 275.887,101.600 274.106 C 99.730 272.325,97.570 270.050,96.800 269.049 C 96.030 268.049,95.234 267.223,95.030 267.215 C 94.827 267.207,95.097 267.692,95.630 268.294 M75.200 268.336 C 75.200 268.521,75.875 269.292,76.700 270.050 C 78.953 272.120,84.800 276.900,84.800 276.672 C 84.800 276.562,83.405 275.313,81.700 273.897 C 79.995 272.481,77.835 270.575,76.900 269.662 C 75.965 268.748,75.200 268.152,75.200 268.336 M187.543 270.900 C 186.896 271.822,186.836 272.035,187.337 271.633 C 188.050 271.060,188.987 269.600,188.641 269.600 C 188.539 269.600,188.044 270.185,187.543 270.900 M329.479 271.843 C 328.226 273.077,327.200 274.196,327.200 274.330 C 327.200 274.465,328.280 273.506,329.600 272.200 C 330.920 270.894,332.000 269.774,332.000 269.713 C 332.000 269.418,331.595 269.760,329.479 271.843 M184.254 274.900 C 182.989 276.275,181.136 278.030,180.136 278.800 C 177.339 280.954,176.454 281.764,178.000 280.757 C 180.299 279.258,183.517 276.410,185.249 274.341 C 187.524 271.624,186.993 271.922,184.254 274.900 M246.000 274.586 C 246.000 274.855,252.037 278.897,252.197 278.734 C 252.270 278.660,250.905 277.654,249.165 276.498 C 247.424 275.342,246.000 274.481,246.000 274.586 M325.067 275.867 C 324.225 276.638,323.596 277.329,323.669 277.403 C 323.743 277.476,324.491 276.905,325.333 276.133 C 326.175 275.362,326.804 274.671,326.731 274.597 C 326.657 274.524,325.909 275.095,325.067 275.867 M318.607 276.622 C 317.511 277.380,316.759 278.000,316.935 278.000 C 317.318 278.000,320.800 275.640,320.800 275.381 C 320.800 275.111,320.759 275.134,318.607 276.622 M85.200 276.962 C 85.200 277.072,86.010 277.719,87.000 278.400 C 87.990 279.081,88.800 279.548,88.800 279.438 C 88.800 279.328,87.990 278.681,87.000 278.000 C 86.010 277.319,85.200 276.852,85.200 276.962 M196.200 277.831 C 194.127 279.069,194.566 279.058,197.260 277.804 C 198.437 277.256,199.040 276.823,198.600 276.842 C 198.160 276.860,197.080 277.305,196.200 277.831 M222.800 276.946 C 222.800 277.056,223.340 277.530,224.000 278.000 C 224.660 278.470,225.200 278.764,225.200 278.654 C 225.200 278.544,224.660 278.070,224.000 277.600 C 223.340 277.130,222.800 276.836,222.800 276.946 M106.046 278.333 C 108.371 280.119,114.364 283.900,113.600 283.099 C 113.490 282.983,111.615 281.699,109.433 280.244 C 105.574 277.672,104.112 276.847,106.046 278.333 M319.144 280.331 C 317.023 281.799,314.953 283.229,314.544 283.508 C 313.918 283.935,313.959 283.942,314.800 283.550 C 316.773 282.631,324.170 277.371,323.124 277.631 C 323.056 277.648,321.265 278.863,319.144 280.331 M315.100 278.629 C 313.605 279.440,313.696 279.778,315.200 279.000 C 315.860 278.659,316.400 278.294,316.400 278.190 C 316.400 277.932,316.357 277.947,315.100 278.629 M200.725 279.436 C 201.186 280.115,201.886 280.925,202.281 281.236 C 203.182 281.943,202.404 280.844,200.844 279.205 L 199.888 278.200 200.725 279.436 M225.608 279.088 C 225.619 279.539,232.800 284.305,232.800 283.862 C 232.800 283.760,232.003 283.209,231.028 282.638 C 230.054 282.067,229.014 281.375,228.717 281.100 C 227.646 280.107,225.600 278.783,225.608 279.088 M254.033 279.757 C 254.483 280.181,257.313 281.620,257.442 281.491 C 257.524 281.410,256.855 280.951,255.957 280.472 C 254.470 279.677,253.610 279.358,254.033 279.757 M311.200 280.638 C 310.210 281.163,309.620 281.594,309.888 281.596 C 310.308 281.599,313.084 280.212,313.567 279.757 C 314.012 279.337,312.812 279.784,311.200 280.638 M92.600 282.023 C 93.260 282.473,94.700 283.283,95.800 283.824 C 98.075 284.942,97.639 284.595,94.252 282.590 C 91.674 281.064,90.705 280.732,92.600 282.023 M186.200 282.594 C 184.660 283.336,183.580 283.946,183.800 283.950 C 184.020 283.953,185.460 283.349,187.000 282.606 C 188.540 281.864,189.620 281.254,189.400 281.250 C 189.180 281.247,187.740 281.851,186.200 282.594 M173.600 283.126 C 172.170 283.957,169.959 285.057,168.686 285.571 C 167.413 286.084,166.438 286.571,166.519 286.652 C 166.862 286.996,174.105 283.557,175.800 282.245 C 177.129 281.216,176.344 281.531,173.600 283.126 M114.000 283.407 C 114.000 283.708,119.227 286.106,119.433 285.900 C 119.543 285.790,118.951 285.410,118.117 285.055 C 117.282 284.700,116.015 284.146,115.300 283.824 C 114.585 283.502,114.000 283.314,114.000 283.407 M265.200 284.600 C 265.970 284.897,266.960 285.141,267.400 285.143 C 267.840 285.145,267.390 284.891,266.400 284.579 C 264.139 283.867,263.333 283.881,265.200 284.600 M301.200 284.400 C 300.870 284.613,300.150 284.811,299.600 284.840 C 298.964 284.874,298.845 284.957,299.273 285.071 C 299.643 285.168,300.723 284.976,301.673 284.643 C 302.623 284.310,303.040 284.032,302.600 284.025 C 302.160 284.018,301.530 284.187,301.200 284.400 M310.700 285.318 C 309.435 285.986,308.459 286.592,308.532 286.665 C 308.707 286.841,313.600 284.464,313.600 284.203 C 313.600 283.861,313.089 284.057,310.700 285.318 M269.000 285.581 C 269.768 285.929,271.910 286.156,271.567 285.853 C 271.475 285.772,270.680 285.596,269.800 285.462 C 268.685 285.293,268.442 285.329,269.000 285.581 M296.000 285.600 C 294.633 285.888,294.628 285.895,295.800 285.919 C 296.460 285.933,297.360 285.789,297.800 285.600 C 298.762 285.187,297.964 285.187,296.000 285.600 M101.375 286.621 C 102.461 287.159,103.541 287.594,103.775 287.586 C 104.295 287.568,100.362 285.647,99.800 285.644 C 99.580 285.643,100.289 286.083,101.375 286.621 M177.000 286.214 C 175.385 286.954,176.351 286.955,178.054 286.216 C 178.794 285.894,179.130 285.639,178.800 285.648 C 178.470 285.657,177.660 285.912,177.000 286.214 M236.946 286.202 C 237.576 286.531,238.296 286.799,238.546 286.798 C 238.796 286.796,238.484 286.526,237.854 286.198 C 237.224 285.869,236.504 285.601,236.254 285.602 C 236.004 285.604,236.316 285.874,236.946 286.202 M273.000 286.386 C 273.757 286.725,277.121 286.964,276.767 286.654 C 276.675 286.574,275.610 286.400,274.400 286.268 C 272.963 286.112,272.478 286.152,273.000 286.386 M290.600 286.400 L 289.000 286.686 290.600 286.703 C 291.480 286.713,292.650 286.576,293.200 286.400 L 294.200 286.080 293.200 286.097 C 292.650 286.106,291.480 286.242,290.600 286.400 M207.648 288.200 C 207.952 288.640,208.290 289.090,208.401 289.200 C 208.512 289.310,209.380 290.424,210.331 291.676 C 211.282 292.928,212.360 294.188,212.726 294.476 C 213.092 294.764,212.943 294.447,212.396 293.771 C 211.848 293.096,210.950 291.934,210.400 291.190 C 209.258 289.645,206.808 286.984,207.648 288.200 M126.833 288.547 C 126.925 288.628,127.720 288.804,128.600 288.938 C 129.715 289.107,129.958 289.071,129.400 288.819 C 128.632 288.471,126.490 288.244,126.833 288.547 M159.141 288.593 C 159.035 288.699,157.970 288.948,156.774 289.146 C 155.465 289.363,155.078 289.518,155.800 289.536 C 156.460 289.553,157.990 289.319,159.200 289.017 C 160.535 288.684,160.994 288.455,160.367 288.434 C 159.798 288.415,159.247 288.487,159.141 288.593 M130.900 289.476 C 131.285 289.576,131.915 289.576,132.300 289.476 C 132.685 289.375,132.370 289.293,131.600 289.293 C 130.830 289.293,130.515 289.375,130.900 289.476 M166.200 289.600 C 165.908 290.073,166.299 290.073,167.400 289.600 C 168.171 289.269,168.169 289.255,167.324 289.228 C 166.842 289.213,166.336 289.380,166.200 289.600 M246.200 289.600 C 247.301 290.073,247.692 290.073,247.400 289.600 C 247.264 289.380,246.758 289.213,246.276 289.228 C 245.431 289.255,245.429 289.269,246.200 289.600 M300.000 289.825 C 299.230 290.116,298.894 290.365,299.254 290.377 C 299.614 290.390,300.514 290.137,301.254 289.816 C 302.920 289.092,301.916 289.100,300.000 289.825 M134.200 290.012 C 134.967 290.330,140.310 290.554,139.967 290.255 C 139.875 290.175,138.360 290.013,136.600 289.895 C 134.749 289.771,133.737 289.821,134.200 290.012 M149.600 290.000 L 147.000 290.262 149.600 290.291 C 151.030 290.307,152.650 290.176,153.200 290.000 L 154.200 289.680 153.200 289.709 C 152.650 289.725,151.030 289.856,149.600 290.000 M110.833 290.144 C 110.925 290.223,111.540 290.408,112.200 290.556 C 113.076 290.752,113.238 290.715,112.800 290.418 C 112.260 290.053,110.432 289.798,110.833 290.144 M162.400 290.392 C 161.850 290.574,160.271 290.945,158.890 291.218 C 157.510 291.490,156.456 291.789,156.548 291.882 C 156.641 291.974,158.130 291.745,159.858 291.373 C 166.549 289.932,165.956 290.094,164.600 290.078 C 163.940 290.070,162.950 290.211,162.400 290.392 M248.033 290.143 C 248.125 290.221,248.830 290.401,249.600 290.542 C 250.585 290.723,250.822 290.682,250.400 290.406 C 249.858 290.050,247.637 289.803,248.033 290.143 M295.234 291.111 C 293.822 291.466,292.848 291.816,293.069 291.890 C 293.507 292.036,297.993 290.941,298.327 290.606 C 298.628 290.306,298.097 290.392,295.234 291.111 M116.000 291.600 C 116.330 291.813,116.960 291.978,117.400 291.966 L 118.200 291.944 117.400 291.600 C 116.204 291.086,115.205 291.086,116.000 291.600 M254.200 291.600 C 254.640 291.789,255.360 291.938,255.800 291.932 C 256.443 291.923,256.404 291.857,255.600 291.600 C 254.232 291.162,253.181 291.162,254.200 291.600 M120.200 292.400 C 120.640 292.589,121.360 292.744,121.800 292.744 L 122.600 292.744 121.800 292.400 C 121.360 292.211,120.640 292.056,120.200 292.056 L 119.400 292.056 120.200 292.400 M151.000 292.400 L 149.800 292.705 151.000 292.705 C 151.660 292.705,152.740 292.568,153.400 292.400 L 154.600 292.095 153.400 292.095 C 152.740 292.095,151.660 292.232,151.000 292.400 M258.800 292.400 C 259.350 292.576,260.340 292.717,261.000 292.713 L 262.200 292.705 261.000 292.400 C 260.340 292.232,259.350 292.091,258.800 292.087 L 257.800 292.080 258.800 292.400 M288.800 292.400 L 287.800 292.720 288.800 292.720 C 289.350 292.720,290.250 292.576,290.800 292.400 L 291.800 292.080 290.800 292.080 C 290.250 292.080,289.350 292.224,288.800 292.400 M125.800 293.218 C 126.900 293.390,128.520 293.522,129.400 293.512 C 130.951 293.494,130.939 293.484,129.000 293.182 C 127.900 293.010,126.280 292.878,125.400 292.888 C 123.849 292.906,123.861 292.916,125.800 293.218 M139.800 293.200 L 137.000 293.459 140.000 293.486 C 141.650 293.501,144.080 293.379,145.400 293.215 L 147.800 292.918 145.200 292.929 C 143.770 292.936,141.340 293.058,139.800 293.200 M266.000 293.194 C 268.269 293.531,273.862 293.718,273.567 293.447 C 273.475 293.363,271.240 293.198,268.600 293.081 C 265.360 292.936,264.515 292.973,266.000 293.194 M279.800 293.200 L 277.400 293.466 279.800 293.498 C 281.120 293.515,283.100 293.390,284.200 293.218 L 286.200 292.907 284.200 292.921 C 283.100 292.928,281.120 293.054,279.800 293.200 M9.140 392.100 C 9.306 392.266,95.472 392.356,200.620 392.300 L 391.800 392.200 200.320 392.000 C 95.006 391.890,8.975 391.935,9.140 392.100 " stroke="none" fill="#8c8c8c" fill-rule="evenodd"></path><path id="path3" d="M142.705 94.283 C 143.202 94.379,143.922 94.375,144.305 94.275 C 144.687 94.175,144.280 94.096,143.400 94.101 C 142.520 94.105,142.207 94.187,142.705 94.283 M147.305 94.287 C 147.914 94.379,148.814 94.377,149.305 94.282 C 149.797 94.187,149.300 94.111,148.200 94.114 C 147.100 94.117,146.697 94.195,147.305 94.287 M278.500 94.287 C 279.105 94.378,280.095 94.378,280.700 94.287 C 281.305 94.195,280.810 94.120,279.600 94.120 C 278.390 94.120,277.895 94.195,278.500 94.287 M341.720 103.600 C 341.720 104.810,341.795 105.305,341.887 104.700 C 341.978 104.095,341.978 103.105,341.887 102.500 C 341.795 101.895,341.720 102.390,341.720 103.600 M216.101 114.600 C 216.105 115.480,216.187 115.793,216.283 115.295 C 216.379 114.798,216.375 114.078,216.275 113.695 C 216.175 113.313,216.096 113.720,216.101 114.600 M342.120 121.200 C 342.120 122.410,342.195 122.905,342.287 122.300 C 342.378 121.695,342.378 120.705,342.287 120.100 C 342.195 119.495,342.120 119.990,342.120 121.200 M216.509 125.600 C 216.509 126.590,216.587 126.995,216.682 126.500 C 216.778 126.005,216.778 125.195,216.682 124.700 C 216.587 124.205,216.509 124.610,216.509 125.600 M222.148 134.800 C 222.148 137.110,222.214 138.055,222.295 136.900 C 222.376 135.745,222.376 133.855,222.295 132.700 C 222.214 131.545,222.148 132.490,222.148 134.800 M216.909 145.600 C 216.909 146.590,216.987 146.995,217.082 146.500 C 217.178 146.005,217.178 145.195,217.082 144.700 C 216.987 144.205,216.909 144.610,216.909 145.600 M342.542 154.200 C 342.541 156.180,342.608 157.040,342.692 156.112 C 342.776 155.184,342.777 153.564,342.695 152.512 C 342.612 151.460,342.543 152.220,342.542 154.200 M217.293 156.000 C 217.293 156.770,217.375 157.085,217.476 156.700 C 217.576 156.315,217.576 155.685,217.476 155.300 C 217.375 154.915,217.293 155.230,217.293 156.000 M48.093 194.800 C 48.093 195.570,48.175 195.885,48.276 195.500 C 48.376 195.115,48.376 194.485,48.276 194.100 C 48.175 193.715,48.093 194.030,48.093 194.800 M48.093 202.400 C 48.093 203.170,48.175 203.485,48.276 203.100 C 48.376 202.715,48.376 202.085,48.276 201.700 C 48.175 201.315,48.093 201.630,48.093 202.400 M141.700 290.294 C 142.745 290.376,144.455 290.376,145.500 290.294 C 146.545 290.212,145.690 290.144,143.600 290.144 C 141.510 290.144,140.655 290.212,141.700 290.294 " stroke="none" fill="#949494" fill-rule="evenodd"></path><path id="path4" d="M8.985 9.300 C 8.881 9.575,8.841 95.750,8.898 200.800 L 9.000 391.800 200.300 391.801 L 391.600 391.801 200.400 391.700 L 9.200 391.599 9.200 200.400 L 9.200 9.200 200.367 9.200 C 330.521 9.200,391.598 9.331,391.737 9.610 C 391.849 9.835,391.894 9.790,391.837 9.510 C 391.686 8.764,9.268 8.554,8.985 9.300 M140.000 93.953 C 139.230 94.089,142.200 94.205,146.600 94.210 C 151.071 94.216,153.806 94.097,152.800 93.940 C 150.621 93.600,141.947 93.609,140.000 93.953 M213.834 94.682 L 213.153 95.800 213.979 94.853 C 214.695 94.032,214.893 93.979,215.467 94.453 C 216.035 94.921,216.102 94.914,215.932 94.400 C 215.593 93.373,214.547 93.513,213.834 94.682 M275.600 93.953 C 274.830 94.089,277.159 94.200,280.776 94.200 C 284.393 94.200,286.823 94.086,286.176 93.947 C 284.674 93.625,277.436 93.628,275.600 93.953 M339.462 94.331 C 339.098 94.734,338.800 95.204,338.800 95.376 C 338.800 95.548,339.132 95.279,339.538 94.778 C 340.978 92.999,341.591 93.946,341.680 98.087 L 341.761 101.800 341.899 98.601 C 342.109 93.740,341.292 92.309,339.462 94.331 M132.800 94.797 C 132.219 94.981,132.973 95.025,134.600 94.901 C 136.140 94.784,137.475 94.623,137.567 94.544 C 137.888 94.266,133.789 94.483,132.800 94.797 M156.033 94.545 C 156.125 94.624,157.550 94.783,159.200 94.897 C 160.893 95.014,161.764 94.969,161.200 94.792 C 160.208 94.482,155.713 94.267,156.033 94.545 M267.600 94.797 C 267.019 94.981,267.773 95.025,269.400 94.901 C 270.940 94.784,272.275 94.623,272.367 94.544 C 272.688 94.266,268.589 94.483,267.600 94.797 M288.433 94.544 C 288.525 94.623,289.590 94.789,290.800 94.912 C 292.169 95.051,292.698 95.008,292.200 94.796 C 291.433 94.470,288.089 94.247,288.433 94.544 M129.700 95.476 C 130.085 95.576,130.715 95.576,131.100 95.476 C 131.485 95.375,131.170 95.293,130.400 95.293 C 129.630 95.293,129.315 95.375,129.700 95.476 M164.200 95.601 C 168.595 96.429,168.761 96.442,167.000 95.824 C 166.120 95.514,164.770 95.270,164.000 95.281 L 162.600 95.300 164.200 95.601 M264.100 95.476 C 264.485 95.576,265.115 95.576,265.500 95.476 C 265.885 95.375,265.570 95.293,264.800 95.293 C 264.030 95.293,263.715 95.375,264.100 95.476 M127.000 96.000 C 126.496 96.217,126.422 96.344,126.800 96.344 C 127.130 96.344,127.760 96.189,128.200 96.000 C 128.704 95.783,128.778 95.656,128.400 95.656 C 128.070 95.656,127.440 95.811,127.000 96.000 M261.400 96.000 C 260.896 96.217,260.822 96.344,261.200 96.344 C 261.530 96.344,262.160 96.189,262.600 96.000 C 263.104 95.783,263.178 95.656,262.800 95.656 C 262.470 95.656,261.840 95.811,261.400 96.000 M296.600 96.000 C 297.040 96.189,297.670 96.344,298.000 96.344 C 298.378 96.344,298.304 96.217,297.800 96.000 C 297.360 95.811,296.730 95.656,296.400 95.656 C 296.022 95.656,296.096 95.783,296.600 96.000 M136.600 97.200 L 134.600 97.474 136.400 97.498 C 137.390 97.510,139.190 97.384,140.400 97.217 L 142.600 96.913 140.600 96.919 C 139.500 96.923,137.700 97.049,136.600 97.200 M147.400 97.215 C 150.875 97.647,153.808 97.619,151.000 97.182 C 149.900 97.010,148.100 96.881,147.000 96.894 L 145.000 96.918 147.400 97.215 M267.000 97.200 L 265.400 97.486 266.800 97.514 C 267.570 97.529,269.010 97.397,270.000 97.220 L 271.800 96.900 270.200 96.907 C 269.320 96.911,267.880 97.042,267.000 97.200 M276.800 97.217 C 278.010 97.384,279.810 97.513,280.800 97.504 L 282.600 97.487 280.400 97.183 C 279.190 97.016,277.390 96.887,276.400 96.896 L 274.600 96.913 276.800 97.217 M216.169 105.200 C 216.169 109.710,216.227 111.555,216.298 109.300 C 216.370 107.045,216.370 103.355,216.298 101.100 C 216.227 98.845,216.169 100.690,216.169 105.200 M131.800 98.000 L 131.000 98.344 131.800 98.366 C 132.240 98.378,132.870 98.213,133.200 98.000 C 133.995 97.486,132.996 97.486,131.800 98.000 M154.800 98.000 C 155.130 98.213,155.760 98.378,156.200 98.366 L 157.000 98.344 156.200 98.000 C 155.004 97.486,154.005 97.486,154.800 98.000 M263.000 98.000 C 262.229 98.331,262.231 98.345,263.076 98.372 C 263.558 98.387,264.064 98.220,264.200 98.000 C 264.492 97.527,264.101 97.527,263.000 98.000 M284.400 98.000 C 284.730 98.213,285.360 98.378,285.800 98.366 L 286.600 98.344 285.800 98.000 C 284.604 97.486,283.605 97.486,284.400 98.000 M336.809 99.275 C 336.364 100.196,336.000 101.047,336.000 101.164 C 336.000 101.516,337.001 99.882,337.510 98.700 C 338.255 96.967,337.707 97.417,336.809 99.275 M305.000 98.400 C 306.101 98.873,306.492 98.873,306.200 98.400 C 306.064 98.180,305.558 98.013,305.076 98.028 C 304.231 98.055,304.229 98.069,305.000 98.400 M115.600 99.433 C 114.984 99.775,114.838 99.990,115.220 99.994 C 115.561 99.997,116.011 99.837,116.220 99.639 C 116.429 99.440,116.960 99.191,117.400 99.085 L 118.200 98.893 117.400 98.886 C 116.960 98.882,116.150 99.128,115.600 99.433 M178.746 99.416 C 179.486 99.737,180.296 99.993,180.546 99.984 C 180.796 99.976,180.394 99.706,179.654 99.384 C 178.914 99.063,178.104 98.807,177.854 98.816 C 177.604 98.824,178.006 99.094,178.746 99.416 M249.200 99.400 C 247.922 100.130,248.196 100.134,250.200 99.412 C 251.080 99.095,251.440 98.834,251.000 98.832 C 250.560 98.830,249.750 99.086,249.200 99.400 M307.946 99.416 C 308.686 99.737,309.496 99.993,309.746 99.984 C 309.996 99.976,309.594 99.706,308.854 99.384 C 308.114 99.063,307.304 98.807,307.054 98.816 C 306.804 98.824,307.206 99.094,307.946 99.416 M121.800 100.991 C 120.700 101.509,120.085 101.948,120.433 101.967 C 120.782 101.985,121.202 101.865,121.367 101.700 C 121.531 101.535,122.416 101.095,123.333 100.722 C 124.250 100.350,124.730 100.046,124.400 100.047 C 124.070 100.048,122.900 100.473,121.800 100.991 M164.667 100.722 C 165.584 101.095,166.469 101.535,166.633 101.700 C 166.798 101.865,167.218 101.985,167.567 101.967 C 168.332 101.927,164.454 100.050,163.600 100.047 C 163.270 100.046,163.750 100.350,164.667 100.722 M255.200 100.600 C 254.650 100.914,254.380 101.172,254.600 101.172 C 254.820 101.172,255.450 100.914,256.000 100.600 C 256.550 100.286,256.820 100.028,256.600 100.028 C 256.380 100.028,255.750 100.286,255.200 100.600 M293.746 100.602 C 294.376 100.931,295.096 101.199,295.346 101.198 C 295.596 101.196,295.284 100.926,294.654 100.598 C 294.024 100.269,293.304 100.001,293.054 100.002 C 292.804 100.004,293.116 100.274,293.746 100.602 M105.898 103.703 C 104.632 104.377,103.661 104.994,103.740 105.073 C 103.872 105.206,108.367 102.966,108.762 102.571 C 109.231 102.103,107.961 102.604,105.898 103.703 M187.600 103.000 C 188.150 103.314,188.780 103.572,189.000 103.572 C 189.220 103.572,188.950 103.314,188.400 103.000 C 187.850 102.686,187.220 102.428,187.000 102.428 C 186.780 102.428,187.050 102.686,187.600 103.000 M239.900 103.247 C 238.169 104.123,237.865 104.619,239.500 103.898 C 241.657 102.948,242.591 102.406,242.000 102.446 C 241.670 102.469,240.725 102.829,239.900 103.247 M316.400 103.000 C 317.715 103.752,318.364 103.760,317.376 103.013 C 316.949 102.690,316.330 102.426,316.000 102.427 C 315.652 102.428,315.820 102.668,316.400 103.000 M114.600 104.590 C 113.720 105.132,113.125 105.581,113.277 105.588 C 113.624 105.603,116.400 103.979,116.400 103.760 C 116.400 103.500,116.276 103.557,114.600 104.590 M171.600 103.760 C 171.600 103.969,174.363 105.600,174.716 105.600 C 174.864 105.600,174.323 105.150,173.514 104.600 C 172.097 103.637,171.600 103.419,171.600 103.760 M247.611 104.620 C 246.847 105.159,246.397 105.599,246.611 105.598 C 246.825 105.597,247.540 105.153,248.200 104.612 C 249.741 103.349,249.405 103.353,247.611 104.620 M234.100 106.442 C 232.945 107.115,232.000 107.758,232.000 107.871 C 232.000 108.093,235.557 106.115,236.180 105.547 C 236.858 104.928,236.242 105.193,234.100 106.442 M342.165 112.200 C 342.166 116.160,342.226 117.726,342.298 115.680 C 342.371 113.634,342.371 110.394,342.298 108.480 C 342.224 106.566,342.165 108.240,342.165 112.200 M99.880 106.977 C 99.044 107.474,98.144 108.103,97.880 108.377 C 97.477 108.795,101.473 106.625,101.967 106.158 C 102.449 105.702,101.207 106.190,99.880 106.977 M206.862 107.662 C 206.377 108.570,206.042 109.376,206.118 109.452 C 206.195 109.528,206.654 108.847,207.138 107.938 C 207.623 107.030,207.958 106.224,207.882 106.148 C 207.805 106.072,207.346 106.753,206.862 107.662 M322.800 106.164 C 322.800 106.255,323.880 107.067,325.200 107.968 C 326.520 108.869,327.600 109.469,327.600 109.302 C 327.600 109.135,326.520 108.323,325.200 107.498 C 323.880 106.672,322.800 106.072,322.800 106.164 M332.000 109.001 C 330.694 111.574,330.663 111.601,329.837 110.905 C 329.001 110.201,329.001 110.201,329.753 111.091 C 330.168 111.580,330.659 111.887,330.846 111.772 C 331.249 111.523,333.640 106.706,333.453 106.520 C 333.382 106.449,332.728 107.565,332.000 109.001 M107.200 109.763 C 105.550 111.155,103.753 112.813,103.208 113.447 C 102.662 114.081,103.112 113.773,104.208 112.762 C 105.303 111.752,107.252 110.087,108.537 109.062 C 109.822 108.038,110.722 107.207,110.537 107.216 C 110.352 107.224,108.850 108.370,107.200 109.763 M197.200 107.964 C 197.750 108.414,198.380 108.783,198.600 108.785 C 199.028 108.788,198.305 108.234,197.000 107.560 C 196.469 107.285,196.536 107.421,197.200 107.964 M239.327 111.359 C 236.947 113.647,235.090 115.582,235.200 115.659 C 235.310 115.737,237.346 113.865,239.724 111.500 C 242.101 109.135,243.958 107.200,243.850 107.200 C 243.742 107.200,241.706 109.072,239.327 111.359 M180.000 108.946 C 180.000 109.056,180.540 109.530,181.200 110.000 C 181.860 110.470,182.400 110.764,182.400 110.654 C 182.400 110.544,181.860 110.070,181.200 109.600 C 180.540 109.130,180.000 108.836,180.000 108.946 M199.200 109.127 C 199.200 109.316,199.650 109.677,200.200 109.927 C 200.750 110.178,201.200 110.317,201.200 110.237 C 201.200 110.157,200.750 109.797,200.200 109.437 C 199.650 109.076,199.200 108.937,199.200 109.127 M308.800 109.261 C 311.012 111.467,314.410 114.376,313.000 112.856 C 312.120 111.908,310.680 110.577,309.800 109.897 C 308.920 109.218,308.470 108.932,308.800 109.261 M202.600 111.365 C 203.872 112.458,204.597 112.652,204.997 112.005 C 205.136 111.780,204.980 111.710,204.635 111.842 C 204.301 111.970,203.437 111.683,202.714 111.204 L 201.400 110.334 202.600 111.365 M225.706 111.916 C 224.554 112.732,223.609 113.529,223.606 113.688 C 223.603 113.846,224.590 113.235,225.800 112.330 C 227.694 110.914,228.313 110.349,227.900 110.416 C 227.845 110.425,226.858 111.100,225.706 111.916 M92.200 112.235 L 91.000 113.266 92.300 112.406 C 93.015 111.933,93.600 111.468,93.600 111.373 C 93.600 111.073,93.431 111.178,92.200 112.235 M216.557 118.800 C 216.557 121.770,216.620 122.985,216.697 121.500 C 216.774 120.015,216.774 117.585,216.697 116.100 C 216.620 114.615,216.557 115.830,216.557 118.800 M222.244 114.751 C 221.697 115.356,221.591 116.115,221.702 118.651 L 221.839 121.800 221.920 118.631 C 221.978 116.331,222.181 115.263,222.662 114.731 C 223.026 114.329,223.234 114.000,223.124 114.000 C 223.014 114.000,222.618 114.338,222.244 114.751 M86.772 116.296 C 84.356 118.335,83.887 118.802,84.271 118.787 C 84.652 118.773,89.114 114.832,88.772 114.813 C 88.647 114.806,87.747 115.473,86.772 116.296 M100.378 116.300 L 99.000 117.800 100.500 116.422 C 101.896 115.138,102.184 114.800,101.878 114.800 C 101.812 114.800,101.137 115.475,100.378 116.300 M315.622 115.778 C 317.022 117.629,318.800 119.608,318.799 119.314 C 318.799 119.141,317.944 118.090,316.899 116.978 C 315.855 115.866,315.280 115.326,315.622 115.778 M190.086 117.746 C 190.589 118.267,191.074 118.628,191.164 118.549 C 191.397 118.345,189.948 116.800,189.524 116.800 C 189.330 116.800,189.583 117.226,190.086 117.746 M79.991 122.700 L 76.600 126.200 80.100 122.809 C 83.351 119.659,83.782 119.200,83.491 119.200 C 83.431 119.200,81.856 120.775,79.991 122.700 M192.413 119.909 C 192.421 120.069,193.456 121.290,194.713 122.622 C 197.191 125.245,196.806 124.565,194.084 121.509 C 193.158 120.469,192.406 119.749,192.413 119.909 M96.551 120.900 C 95.370 122.248,94.680 123.200,94.884 123.200 C 94.984 123.200,95.645 122.480,96.352 121.600 C 97.725 119.892,97.864 119.401,96.551 120.900 M320.000 121.200 C 320.470 121.860,320.944 122.400,321.054 122.400 C 321.164 122.400,320.870 121.860,320.400 121.200 C 319.930 120.540,319.456 120.000,319.346 120.000 C 319.236 120.000,319.530 120.540,320.000 121.200 M342.582 135.400 C 342.582 143.980,342.635 147.433,342.700 143.074 C 342.764 138.714,342.764 131.694,342.699 127.474 C 342.635 123.253,342.582 126.820,342.582 135.400 M322.740 125.100 C 323.669 126.475,324.506 127.600,324.598 127.600 C 324.897 127.600,322.300 123.614,321.665 123.099 C 321.327 122.824,321.811 123.725,322.740 125.100 M197.895 126.600 C 199.586 128.948,200.968 130.352,199.551 128.282 C 198.829 127.227,197.967 126.147,197.635 125.882 C 197.303 125.617,197.420 125.940,197.895 126.600 M216.972 134.800 C 216.972 139.970,217.029 142.085,217.099 139.500 C 217.168 136.915,217.168 132.685,217.099 130.100 C 217.029 127.515,216.972 129.630,216.972 134.800 M91.295 128.623 C 90.803 129.374,90.400 130.123,90.400 130.287 C 90.400 130.451,90.866 129.900,91.436 129.062 C 92.005 128.224,92.408 127.475,92.331 127.398 C 92.254 127.320,91.788 127.872,91.295 128.623 M73.963 129.100 C 72.250 131.011,71.469 132.000,71.675 132.000 C 71.785 132.000,72.634 131.100,73.561 130.000 C 75.345 127.885,75.635 127.236,73.963 129.100 M325.386 129.100 C 325.735 129.815,326.106 130.400,326.210 130.400 C 326.608 130.400,326.352 129.763,325.567 128.800 L 324.752 127.800 325.386 129.100 M225.291 132.900 C 224.610 134.784,224.704 135.294,225.426 133.630 C 225.753 132.877,225.966 132.099,225.901 131.902 C 225.835 131.705,225.560 132.154,225.291 132.900 M202.402 133.033 C 202.403 133.235,202.868 133.940,203.435 134.600 L 204.466 135.800 203.563 134.400 C 202.404 132.604,202.400 132.599,202.402 133.033 M69.600 134.400 C 69.130 135.060,68.836 135.600,68.946 135.600 C 69.056 135.600,69.530 135.060,70.000 134.400 C 70.470 133.740,70.764 133.200,70.654 133.200 C 70.544 133.200,70.070 133.740,69.600 134.400 M87.651 135.380 C 86.477 137.879,86.616 138.256,87.818 135.831 C 88.355 134.748,88.729 133.796,88.649 133.715 C 88.568 133.635,88.119 134.384,87.651 135.380 M65.476 140.257 C 64.418 141.923,63.608 143.339,63.676 143.404 C 63.744 143.469,64.738 142.099,65.884 140.361 C 67.031 138.622,67.841 137.207,67.684 137.214 C 67.528 137.222,66.534 138.592,65.476 140.257 M206.049 139.000 C 206.679 140.587,208.066 143.193,208.386 143.391 C 208.599 143.523,208.226 142.591,207.558 141.320 C 206.460 139.232,205.643 137.977,206.049 139.000 M222.123 139.321 C 222.213 140.160,222.915 140.307,223.120 139.530 C 223.227 139.129,223.166 139.136,222.871 139.558 C 222.552 140.014,222.441 139.977,222.263 139.358 C 222.078 138.712,222.057 138.706,222.123 139.321 M331.614 140.625 C 331.606 140.859,332.041 141.939,332.579 143.025 C 333.117 144.111,333.557 144.820,333.556 144.600 C 333.553 144.038,331.632 140.105,331.614 140.625 M84.491 142.687 C 83.730 144.723,83.555 145.379,83.853 145.080 C 84.218 144.715,85.212 141.878,85.036 141.702 C 84.965 141.632,84.720 142.075,84.491 142.687 M62.473 145.000 C 62.222 145.550,62.083 146.000,62.163 146.000 C 62.243 146.000,62.603 145.550,62.963 145.000 C 63.324 144.450,63.463 144.000,63.273 144.000 C 63.084 144.000,62.723 144.450,62.473 145.000 M82.891 146.900 C 82.210 148.784,82.304 149.294,83.026 147.630 C 83.353 146.877,83.566 146.099,83.501 145.902 C 83.435 145.705,83.160 146.154,82.891 146.900 M217.458 153.432 C 217.615 159.464,217.549 160.745,217.059 161.151 C 216.421 161.680,215.200 160.428,215.200 159.244 C 215.200 158.927,215.073 158.794,214.918 158.949 C 214.541 159.326,216.001 162.000,216.583 162.000 C 218.058 162.000,218.300 159.153,217.588 150.200 C 217.348 147.182,217.316 147.976,217.458 153.432 M57.270 155.131 C 56.791 156.190,56.406 157.223,56.414 157.428 C 56.422 157.633,56.880 156.833,57.432 155.652 C 57.985 154.470,58.370 153.436,58.288 153.355 C 58.207 153.273,57.748 154.073,57.270 155.131 M80.446 154.867 C 80.421 155.234,80.296 155.864,80.170 156.267 C 79.952 156.962,79.963 156.963,80.397 156.287 C 80.648 155.896,80.773 155.266,80.673 154.887 C 80.511 154.268,80.488 154.266,80.446 154.867 M79.291 159.377 C 79.021 160.386,78.812 161.524,78.826 161.906 C 78.841 162.288,79.115 161.623,79.436 160.430 C 79.757 159.236,79.966 158.098,79.900 157.901 C 79.835 157.704,79.560 158.369,79.291 159.377 M342.800 161.626 C 342.800 162.081,342.610 162.846,342.378 163.326 C 341.970 164.170,341.977 164.174,342.578 163.424 C 343.152 162.706,343.459 160.800,343.000 160.800 C 342.890 160.800,342.800 161.172,342.800 161.626 M340.412 162.000 C 340.412 162.690,341.080 163.870,341.311 163.588 C 341.396 163.485,341.229 162.950,340.939 162.400 C 340.648 161.849,340.412 161.669,340.412 162.000 M78.200 164.400 C 78.048 165.091,78.007 165.741,78.109 165.842 C 78.211 165.944,78.409 165.453,78.550 164.750 C 78.883 163.083,78.560 162.760,78.200 164.400 M53.291 165.300 C 52.610 167.184,52.704 167.694,53.426 166.030 C 53.753 165.277,53.966 164.499,53.901 164.302 C 53.835 164.105,53.560 164.554,53.291 165.300 M77.400 168.800 C 77.248 169.491,77.214 170.147,77.324 170.257 C 77.434 170.367,77.648 169.891,77.800 169.200 C 77.952 168.509,77.986 167.853,77.876 167.743 C 77.766 167.633,77.552 168.109,77.400 168.800 M76.670 174.157 C 76.511 175.453,76.461 176.594,76.560 176.693 C 76.826 176.959,77.303 173.418,77.119 172.547 C 77.032 172.136,76.830 172.860,76.670 174.157 M50.629 174.229 C 50.481 174.815,50.438 175.372,50.532 175.466 C 50.627 175.560,50.824 175.158,50.971 174.571 C 51.119 173.985,51.162 173.428,51.068 173.334 C 50.973 173.240,50.776 173.642,50.629 174.229 M49.829 177.829 C 49.681 178.415,49.638 178.972,49.732 179.066 C 49.827 179.160,50.024 178.758,50.171 178.171 C 50.319 177.585,50.362 177.028,50.268 176.934 C 50.173 176.840,49.976 177.242,49.829 177.829 M75.877 182.951 C 75.707 185.344,75.648 187.381,75.746 187.479 C 76.004 187.738,76.501 181.214,76.330 179.800 C 76.251 179.140,76.047 180.558,75.877 182.951 M49.301 181.000 C 49.305 181.880,49.387 182.193,49.483 181.695 C 49.579 181.198,49.575 180.478,49.475 180.095 C 49.375 179.713,49.296 180.120,49.301 181.000 M48.653 184.036 C 48.514 184.731,48.424 186.133,48.454 187.150 C 48.497 188.609,48.575 188.366,48.822 186.001 C 49.153 182.831,49.075 181.925,48.653 184.036 M75.370 197.200 C 75.370 201.930,75.428 203.865,75.498 201.500 C 75.569 199.135,75.569 195.265,75.498 192.900 C 75.428 190.535,75.370 192.470,75.370 197.200 M47.854 192.256 C 47.522 194.680,47.568 203.762,47.923 205.759 C 48.075 206.616,48.200 203.511,48.200 198.859 C 48.200 189.481,48.210 189.664,47.854 192.256 M176.900 205.100 C 189.385 205.159,209.815 205.159,222.300 205.100 C 234.785 205.041,224.570 204.993,199.600 204.993 C 174.630 204.993,164.415 205.041,176.900 205.100 M153.200 205.656 C 153.200 206.616,154.635 207.174,157.000 207.133 L 159.400 207.091 156.971 206.813 C 154.351 206.513,153.454 206.160,153.817 205.572 C 153.944 205.368,153.857 205.200,153.624 205.200 C 153.391 205.200,153.200 205.405,153.200 205.656 M245.449 205.783 C 245.596 206.167,245.353 206.435,244.736 206.568 C 244.221 206.678,243.440 206.845,243.000 206.938 C 242.441 207.056,242.539 207.121,243.326 207.154 C 243.946 207.179,244.801 207.014,245.226 206.786 C 246.022 206.360,246.304 205.200,245.613 205.200 C 245.399 205.200,245.326 205.462,245.449 205.783 M75.887 211.000 C 76.007 213.200,76.171 215.075,76.253 215.167 C 76.531 215.481,76.341 210.600,76.005 208.800 C 75.775 207.570,75.738 208.266,75.887 211.000 M163.800 207.600 C 164.460 207.768,165.810 207.904,166.800 207.903 L 168.600 207.900 166.800 207.580 C 165.810 207.403,164.460 207.267,163.800 207.277 L 162.600 207.295 163.800 207.600 M236.600 207.600 L 235.400 207.905 236.600 207.913 C 237.260 207.917,238.250 207.776,238.800 207.600 L 239.800 207.280 238.800 207.287 C 238.250 207.291,237.260 207.432,236.600 207.600 M172.200 208.400 C 172.860 208.568,173.850 208.709,174.400 208.713 L 175.400 208.720 174.400 208.400 C 173.850 208.224,172.860 208.083,172.200 208.087 L 171.000 208.095 172.200 208.400 M229.600 208.620 C 228.610 208.904,228.160 209.142,228.600 209.150 C 229.040 209.158,230.300 208.915,231.400 208.609 C 232.500 208.304,232.950 208.065,232.400 208.079 C 231.850 208.093,230.590 208.336,229.600 208.620 M176.300 209.082 C 176.795 209.178,177.605 209.178,178.100 209.082 C 178.595 208.987,178.190 208.909,177.200 208.909 C 176.210 208.909,175.805 208.987,176.300 209.082 M48.440 211.233 C 48.462 212.425,48.620 213.850,48.792 214.400 C 48.969 214.964,49.014 214.093,48.897 212.400 C 48.651 208.847,48.383 208.164,48.440 211.233 M179.600 209.600 C 179.930 209.813,180.650 209.973,181.200 209.954 L 182.200 209.920 181.200 209.600 C 179.658 209.106,178.836 209.106,179.600 209.600 M226.200 209.600 C 225.429 209.931,225.431 209.945,226.276 209.972 C 226.758 209.987,227.264 209.820,227.400 209.600 C 227.692 209.127,227.301 209.127,226.200 209.600 M219.091 213.843 C 217.620 215.313,215.847 218.542,216.098 219.293 C 216.174 219.522,216.488 218.944,216.797 218.010 C 217.105 217.076,218.149 215.432,219.116 214.356 C 221.175 212.065,221.161 211.772,219.091 213.843 M49.301 217.400 C 49.305 218.280,49.387 218.593,49.483 218.095 C 49.579 217.598,49.575 216.878,49.475 216.495 C 49.375 216.113,49.296 216.520,49.301 217.400 M76.659 219.000 C 76.793 220.100,76.969 221.075,77.051 221.167 C 77.364 221.517,77.126 218.561,76.780 217.800 C 76.535 217.261,76.495 217.654,76.659 219.000 M49.656 219.600 C 49.656 219.930,49.811 220.560,50.000 221.000 C 50.217 221.504,50.344 221.578,50.344 221.200 C 50.344 220.870,50.189 220.240,50.000 219.800 C 49.783 219.296,49.656 219.222,49.656 219.600 M193.606 219.833 C 193.609 220.255,193.795 220.870,194.018 221.200 C 194.315 221.638,194.352 221.476,194.156 220.600 C 193.827 219.129,193.598 218.810,193.606 219.833 M215.429 221.029 C 215.281 221.615,215.251 222.184,215.361 222.294 C 215.471 222.404,215.681 222.015,215.829 221.429 C 215.976 220.842,216.006 220.273,215.896 220.163 C 215.786 220.053,215.576 220.442,215.429 221.029 M194.600 238.000 C 194.600 246.690,194.715 252.720,194.857 251.400 C 195.193 248.256,195.196 227.232,194.860 224.400 C 194.717 223.190,194.600 229.310,194.600 238.000 M50.434 223.400 C 50.422 223.840,50.587 224.470,50.800 224.800 C 51.314 225.595,51.314 224.596,50.800 223.400 L 50.456 222.600 50.434 223.400 M77.234 223.600 C 77.246 223.930,77.411 224.560,77.600 225.000 L 77.944 225.800 77.966 225.000 C 77.978 224.560,77.813 223.930,77.600 223.600 C 77.255 223.067,77.215 223.067,77.234 223.600 M78.068 227.600 C 78.088 228.639,78.718 230.346,78.732 229.400 C 78.738 228.960,78.589 228.240,78.400 227.800 C 78.189 227.310,78.061 227.232,78.068 227.600 M52.818 231.654 C 52.808 232.014,53.063 232.914,53.384 233.654 C 54.140 235.394,54.158 234.673,53.412 232.600 C 53.095 231.720,52.827 231.294,52.818 231.654 M79.458 233.600 C 79.775 235.325,80.002 235.651,79.994 234.367 C 79.991 233.835,79.811 233.130,79.594 232.800 C 79.318 232.378,79.277 232.615,79.458 233.600 M349.306 240.300 C 349.856 240.910,349.866 241.166,349.387 242.300 C 349.086 243.015,348.929 243.600,349.039 243.600 C 349.149 243.600,349.480 243.026,349.775 242.324 C 350.316 241.037,349.930 239.600,349.042 239.600 C 348.841 239.600,348.960 239.915,349.306 240.300 M345.586 241.900 C 345.154 242.945,344.620 244.113,344.400 244.495 C 343.812 245.515,343.912 245.909,344.526 244.989 C 345.190 243.993,346.821 240.000,346.564 240.000 C 346.458 240.000,346.018 240.855,345.586 241.900 M221.857 241.396 C 221.724 241.743,221.604 249.793,221.591 259.285 L 221.568 276.544 222.684 277.460 C 224.340 278.820,228.400 281.677,228.400 281.483 C 228.400 281.390,226.961 280.254,225.202 278.957 L 222.005 276.600 222.002 259.124 C 222.000 243.410,222.178 240.076,222.936 241.608 C 223.048 241.834,223.097 241.802,223.045 241.535 C 222.898 240.784,222.126 240.694,221.857 241.396 M82.414 243.254 C 82.406 243.394,82.663 244.114,82.984 244.854 C 83.306 245.594,83.569 245.930,83.570 245.600 C 83.572 245.024,82.443 242.734,82.414 243.254 M345.667 249.867 C 344.958 251.101,344.453 252.187,344.546 252.279 C 344.638 252.372,345.273 251.416,345.956 250.156 C 347.568 247.178,347.341 246.951,345.667 249.867 M60.845 250.206 C 61.219 251.187,63.814 255.200,64.075 255.200 C 64.233 255.200,63.624 254.075,62.721 252.700 C 61.002 250.081,60.588 249.531,60.845 250.206 M340.423 252.250 C 339.953 253.048,339.652 253.786,339.756 253.889 C 339.859 253.993,340.320 253.340,340.780 252.439 C 341.815 250.411,341.581 250.288,340.423 252.250 M342.653 255.300 L 341.933 256.600 342.758 255.600 C 343.489 254.713,343.814 254.000,343.486 254.000 C 343.424 254.000,343.049 254.585,342.653 255.300 M193.800 255.600 C 193.648 256.291,193.607 256.941,193.709 257.042 C 193.811 257.144,194.009 256.653,194.150 255.950 C 194.483 254.283,194.160 253.960,193.800 255.600 M229.246 255.996 C 229.739 256.873,230.208 257.526,230.287 257.446 C 230.459 257.274,228.806 254.400,228.535 254.400 C 228.433 254.400,228.752 255.118,229.246 255.996 M64.402 255.833 C 64.403 256.035,64.868 256.740,65.435 257.400 L 66.466 258.600 65.563 257.200 C 64.404 255.404,64.400 255.399,64.402 255.833 M231.693 260.000 C 231.968 260.440,232.331 260.800,232.500 260.800 C 232.669 260.800,232.582 260.440,232.307 260.000 C 232.032 259.560,231.669 259.200,231.500 259.200 C 231.331 259.200,231.418 259.560,231.693 260.000 M90.402 260.233 C 90.403 260.435,90.868 261.140,91.435 261.800 L 92.466 263.000 91.563 261.600 C 90.404 259.804,90.400 259.799,90.402 260.233 M233.777 262.400 C 235.302 264.307,239.068 268.256,241.217 270.200 C 242.189 271.080,240.931 269.640,238.421 267.000 C 232.646 260.927,232.422 260.705,233.777 262.400 M338.000 262.400 C 337.530 263.060,337.236 263.600,337.346 263.600 C 337.456 263.600,337.930 263.060,338.400 262.400 C 338.870 261.740,339.164 261.200,339.054 261.200 C 338.944 261.200,338.470 261.740,338.000 262.400 M68.812 261.833 C 68.826 262.267,71.197 264.940,71.389 264.738 C 71.461 264.662,70.908 263.895,70.160 263.033 C 69.412 262.172,68.805 261.632,68.812 261.833 M329.626 266.919 C 326.390 270.373,325.960 270.923,328.156 268.800 C 330.902 266.145,334.710 261.968,334.337 262.019 C 334.262 262.029,332.142 264.234,329.626 266.919 M191.457 263.084 C 191.323 263.478,191.036 264.205,190.819 264.700 C 190.179 266.164,190.703 265.725,191.434 264.186 C 191.803 263.408,192.014 262.681,191.903 262.570 C 191.792 262.459,191.592 262.690,191.457 263.084 M93.742 265.155 C 95.050 267.202,100.229 272.916,102.554 274.878 C 104.723 276.708,104.636 276.583,101.785 273.771 C 100.016 272.027,97.766 269.627,96.785 268.438 C 93.992 265.055,92.982 263.965,93.742 265.155 M189.246 267.604 C 188.752 268.482,188.433 269.200,188.535 269.200 C 188.806 269.200,190.459 266.326,190.287 266.154 C 190.208 266.074,189.739 266.727,189.246 267.604 M330.800 270.832 C 328.270 273.461,326.294 275.610,326.408 275.606 C 326.628 275.600,333.154 268.970,334.782 267.100 C 336.884 264.685,335.161 266.300,330.800 270.832 M74.600 268.400 C 75.459 269.280,76.252 270.000,76.362 270.000 C 76.472 270.000,75.859 269.280,75.000 268.400 C 74.141 267.520,73.348 266.800,73.238 266.800 C 73.128 266.800,73.741 267.520,74.600 268.400 M187.200 270.800 C 186.730 271.460,186.436 272.000,186.546 272.000 C 186.656 272.000,187.130 271.460,187.600 270.800 C 188.070 270.140,188.364 269.600,188.254 269.600 C 188.144 269.600,187.670 270.140,187.200 270.800 M76.800 270.518 C 76.800 270.651,78.285 271.990,80.100 273.493 C 84.169 276.863,84.800 277.349,84.800 277.108 C 84.800 277.004,83.765 276.099,82.500 275.098 C 81.235 274.096,79.833 272.945,79.384 272.539 C 77.519 270.852,76.800 270.289,76.800 270.518 M182.284 276.116 C 180.350 278.050,178.325 279.833,177.784 280.080 C 177.243 280.327,176.800 280.692,176.800 280.891 C 176.800 281.091,177.385 280.842,178.100 280.337 C 179.769 279.158,186.263 272.908,186.000 272.733 C 185.890 272.660,184.218 274.182,182.284 276.116 M245.482 273.641 C 246.025 274.315,249.600 276.946,249.600 276.673 C 249.600 276.576,248.565 275.719,247.300 274.770 C 246.035 273.821,245.217 273.313,245.482 273.641 M319.400 275.600 C 318.740 276.037,318.405 276.396,318.656 276.397 C 319.093 276.400,321.211 274.838,320.800 274.816 C 320.690 274.810,320.060 275.163,319.400 275.600 M324.370 277.100 L 323.400 278.200 324.600 277.200 C 325.260 276.650,325.875 276.155,325.967 276.100 C 326.058 276.045,325.955 276.000,325.736 276.000 C 325.518 276.000,324.903 276.495,324.370 277.100 M85.205 277.480 C 85.208 277.656,85.838 278.207,86.605 278.704 C 88.403 279.868,88.400 279.600,86.600 278.227 C 85.830 277.640,85.202 277.303,85.205 277.480 M197.758 277.668 C 197.565 277.980,197.684 278.053,198.116 277.888 C 198.572 277.713,199.241 278.240,200.382 279.672 C 201.272 280.790,202.000 281.574,202.000 281.415 C 202.000 279.962,198.339 276.728,197.758 277.668 M251.600 278.021 C 252.897 278.904,254.475 279.645,254.236 279.258 C 253.987 278.855,251.699 277.594,251.239 277.606 C 251.107 277.609,251.270 277.796,251.600 278.021 M194.800 279.000 C 193.810 279.530,193.142 279.972,193.316 279.982 C 193.741 280.006,196.800 278.434,196.800 278.192 C 196.800 277.927,196.817 277.920,194.800 279.000 M322.171 278.724 C 321.747 279.117,320.683 279.926,319.807 280.520 C 318.931 281.114,318.359 281.600,318.535 281.600 C 318.712 281.600,319.690 281.015,320.709 280.300 C 321.728 279.585,322.745 278.875,322.969 278.722 C 323.193 278.569,323.279 278.346,323.159 278.226 C 323.040 278.106,322.595 278.330,322.171 278.724 M107.200 278.596 C 107.200 278.687,108.010 279.319,109.000 280.000 C 109.990 280.681,110.794 281.095,110.787 280.919 C 110.775 280.600,107.200 278.285,107.200 278.596 M312.300 279.634 C 311.035 280.268,310.000 280.871,310.000 280.975 C 310.000 281.173,313.235 279.715,314.600 278.901 C 316.112 278.000,314.598 278.482,312.300 279.634 M111.200 281.390 C 111.200 281.494,111.785 281.865,112.500 282.214 L 113.800 282.848 112.800 282.033 C 111.837 281.248,111.200 280.992,111.200 281.390 M173.600 282.629 C 170.142 284.747,169.974 284.958,173.000 283.384 C 175.777 281.939,176.933 281.160,176.180 281.241 C 175.971 281.263,174.810 281.888,173.600 282.629 M203.200 283.200 C 203.670 283.860,204.144 284.400,204.254 284.400 C 204.364 284.400,204.070 283.860,203.600 283.200 C 203.130 282.540,202.656 282.000,202.546 282.000 C 202.436 282.000,202.730 282.540,203.200 283.200 M316.200 282.815 C 315.540 283.261,314.409 283.913,313.686 284.265 C 312.963 284.617,312.447 284.980,312.539 285.072 C 312.705 285.238,314.107 284.510,316.800 282.861 C 317.570 282.389,318.020 282.004,317.800 282.004 C 317.580 282.005,316.860 282.370,316.200 282.815 M92.800 282.503 C 93.240 282.970,97.307 285.226,97.450 285.083 C 97.535 284.998,96.660 284.405,95.506 283.765 C 93.292 282.536,92.470 282.152,92.800 282.503 M184.486 283.686 C 182.883 284.356,181.638 284.971,181.718 285.052 C 181.912 285.246,186.891 283.235,187.380 282.765 C 187.896 282.269,187.810 282.297,184.486 283.686 M230.003 282.696 C 230.005 283.019,232.427 284.507,232.626 284.308 C 232.690 284.243,232.126 283.786,231.371 283.292 C 230.617 282.797,230.001 282.529,230.003 282.696 M114.033 282.957 C 114.562 283.455,117.325 284.808,117.486 284.648 C 117.591 284.542,116.906 284.083,115.964 283.628 C 114.339 282.843,113.663 282.608,114.033 282.957 M266.000 284.400 C 266.330 284.613,266.870 284.788,267.200 284.788 C 267.733 284.788,267.733 284.745,267.200 284.400 C 266.870 284.187,266.330 284.012,266.000 284.012 C 265.467 284.012,265.467 284.055,266.000 284.400 M300.000 284.400 C 299.467 284.745,299.467 284.788,300.000 284.788 C 300.330 284.788,300.870 284.613,301.200 284.400 C 301.733 284.055,301.733 284.012,301.200 284.012 C 300.870 284.012,300.330 284.187,300.000 284.400 M268.433 284.944 C 268.525 285.023,269.140 285.208,269.800 285.356 C 270.676 285.552,270.838 285.515,270.400 285.218 C 269.860 284.853,268.032 284.598,268.433 284.944 M296.200 285.200 C 295.181 285.638,296.232 285.638,297.600 285.200 C 298.404 284.943,298.443 284.877,297.800 284.868 C 297.360 284.862,296.640 285.011,296.200 285.200 M120.083 285.816 C 120.449 286.182,124.553 287.601,125.194 287.583 C 125.527 287.574,124.540 287.128,123.000 286.593 C 119.993 285.549,119.751 285.484,120.083 285.816 M205.936 286.700 C 206.370 287.305,207.383 288.520,208.185 289.400 C 209.107 290.411,208.886 290.006,207.586 288.300 C 205.597 285.692,204.326 284.460,205.936 286.700 M273.400 286.000 C 274.060 286.168,275.050 286.309,275.600 286.313 L 276.600 286.320 275.600 286.000 C 275.050 285.824,274.060 285.683,273.400 285.687 L 272.200 285.695 273.400 286.000 M290.400 286.000 C 288.996 286.450,290.463 286.465,292.600 286.023 L 294.200 285.692 292.800 285.686 C 292.030 285.683,290.950 285.824,290.400 286.000 M280.517 286.697 C 282.011 286.774,284.351 286.774,285.717 286.696 C 287.082 286.618,285.860 286.555,283.000 286.555 C 280.140 286.556,279.022 286.620,280.517 286.697 M306.400 287.819 C 305.410 288.333,304.720 288.763,304.867 288.776 C 305.302 288.815,308.800 287.247,308.800 287.014 C 308.800 286.665,308.302 286.832,306.400 287.819 M172.400 288.225 C 171.630 288.516,171.294 288.765,171.654 288.777 C 172.014 288.790,172.914 288.537,173.654 288.216 C 175.320 287.492,174.316 287.500,172.400 288.225 M240.800 288.200 C 241.350 288.514,242.070 288.771,242.400 288.770 C 242.730 288.769,242.394 288.506,241.654 288.184 C 239.951 287.445,239.494 287.453,240.800 288.200 M129.800 288.800 C 130.240 288.989,130.960 289.144,131.400 289.144 L 132.200 289.144 131.400 288.800 C 130.960 288.611,130.240 288.456,129.800 288.456 L 129.000 288.456 129.800 288.800 M156.600 288.800 C 155.581 289.238,156.632 289.238,158.000 288.800 C 158.804 288.543,158.843 288.477,158.200 288.468 C 157.760 288.462,157.040 288.611,156.600 288.800 M169.200 289.200 C 168.376 289.464,168.341 289.526,169.000 289.554 C 169.440 289.573,170.070 289.413,170.400 289.200 C 171.101 288.747,170.614 288.747,169.200 289.200 M135.000 289.623 C 135.880 289.805,136.960 289.952,137.400 289.949 L 138.200 289.944 137.400 289.600 C 136.960 289.411,135.880 289.264,135.000 289.274 L 133.400 289.292 135.000 289.623 M150.000 289.600 L 149.000 289.920 150.000 289.937 C 150.550 289.946,151.720 289.805,152.600 289.623 L 154.200 289.292 152.600 289.286 C 151.720 289.283,150.550 289.424,150.000 289.600 M114.600 291.600 C 115.040 291.789,115.670 291.944,116.000 291.944 C 116.378 291.944,116.304 291.817,115.800 291.600 C 115.360 291.411,114.730 291.256,114.400 291.256 C 114.022 291.256,114.096 291.383,114.600 291.600 M159.000 291.600 L 158.200 291.944 159.000 291.944 C 159.440 291.944,160.160 291.789,160.600 291.600 L 161.400 291.256 160.600 291.256 C 160.160 291.256,159.440 291.411,159.000 291.600 M210.336 292.300 C 212.984 295.986,215.292 297.521,215.168 295.513 C 215.144 295.111,215.093 295.108,214.935 295.500 C 214.531 296.501,213.614 295.951,211.768 293.600 C 209.853 291.163,208.892 290.291,210.336 292.300 M252.600 291.600 C 253.040 291.789,253.670 291.944,254.000 291.944 C 254.378 291.944,254.304 291.817,253.800 291.600 C 253.360 291.411,252.730 291.256,252.400 291.256 C 252.022 291.256,252.096 291.383,252.600 291.600 M154.695 292.239 C 154.564 292.370,153.139 292.629,151.528 292.815 L 148.600 293.152 151.400 292.977 C 155.180 292.740,158.482 292.124,156.367 292.050 C 155.578 292.023,154.826 292.107,154.695 292.239 M257.400 292.574 C 258.720 292.890,260.520 293.135,261.400 293.118 C 263.139 293.085,262.339 292.927,257.000 292.252 C 255.043 292.004,255.051 292.011,257.400 292.574 M119.800 292.797 C 120.564 293.128,123.514 293.355,123.167 293.056 C 123.075 292.977,122.100 292.809,121.000 292.682 C 119.713 292.533,119.285 292.574,119.800 292.797 M288.800 292.800 L 287.000 293.080 288.600 293.112 C 289.480 293.129,290.560 292.989,291.000 292.800 C 291.927 292.402,291.361 292.402,288.800 292.800 M125.429 293.653 C 127.013 293.994,143.347 294.009,145.600 293.670 C 146.590 293.522,142.193 293.400,135.829 293.400 C 129.465 293.400,124.785 293.514,125.429 293.653 M265.423 293.653 C 266.070 293.792,270.470 293.905,275.200 293.905 C 279.930 293.905,284.330 293.792,284.977 293.653 C 285.625 293.514,281.225 293.400,275.200 293.400 C 269.175 293.400,264.775 293.514,265.423 293.653 " stroke="none" fill="#acacac" fill-rule="evenodd"></path></g></svg>