<svg xmlns="http://www.w3.org/2000/svg" width="695" height="904" viewBox="0 0 695 904">
  <path fill="none" stroke="#FFF" stroke-dasharray="6 10" stroke-linecap="round" stroke-linejoin="round" stroke-opacity=".6" stroke-width="4" d="M502.762612,1133 C456.490864,1132.66748 412.476274,1110.53567 370.718843,1066.60459 C343.632941,1033.44337 318.239909,1004.8561 294.539745,980.842802 C270.839581,956.829501 253.910893,905.372427 243.75368,824.756345 C239.239363,831.617288 233.032177,833.332524 225.132123,829.902053 C211.589172,824.756345 182.810402,780.160215 179.424664,744.140263 C176.038926,723.557434 155.7245,670.385125 172.653189,646.371824 C183.938981,630.362957 196.917642,625.788994 211.589172,632.649938 C218.360647,637.2239 222.310675,642.941352 223.439254,649.802295 C224.567833,653.232767 226.260702,654.376257 228.51786,653.232767 C231.903598,634.365173 226.824992,606.921401 225.132123,589.769043 C203.124828,457.695888 264.068106,365.073155 267.453844,358.212212 C315.98275,282.741838 403.156394,233 511.5,233 C619.843606,233 707.01725,282.741838 755.546156,358.212212 C758.931894,365.073155 819.875172,457.695888 797.867877,589.769043 C796.175008,606.921401 791.096402,634.365173 794.48214,653.232767 C796.739298,654.376257 798.432167,653.232767 799.560746,649.802295 C800.689325,642.941352 804.639353,637.2239 811.410828,632.649938 C826.082358,625.788994 839.061019,630.362957 850.346811,646.371824 C867.2755,670.385125 846.961074,723.557434 843.575336,744.140263 C840.189598,780.160215 811.410828,824.756345 797.867877,829.902053 C789.967823,833.332524 783.760637,831.617288 779.24632,824.756345 C769.089107,905.372427 752.160419,956.829501 728.460255,980.842802 C704.760091,1004.8561 679.367059,1033.44337 652.281157,1066.60459 C610.523726,1110.53567 566.509136,1132.66748 520.237388,1133 C514.412463,1133 511.5,1133 511.5,1133 C511.5,1133 508.587537,1133 502.762612,1133 Z" transform="translate(-164 -231)"/>
</svg>
