<?xml version="1.0" encoding="iso-8859-1"?>
<!-- Generator: Adobe Illustrator 19.0.0, SVG Export Plug-In . SVG Version: 6.00 Build 0)  -->
<svg version="1.1" id="Capa_1" xmlns="http://www.w3.org/2000/svg" xmlns:xlink="http://www.w3.org/1999/xlink" x="0px" y="0px"
	 viewBox="0 0 512 512" style="enable-background:new 0 0 512 512;" xml:space="preserve">
<g>
	<g>
		<path d="M260.151,37h-8.303L0,110.763v0.213v290.26L256,475l256-73.763v-290.26v-0.213L260.151,37z M241,440.563L35.93,380.5
			l12.077-3.537l-8.432-28.791L30,350.976V151.023l211,61.799V440.563z M241,172v9.562L53.002,126.5L241,71.438V82h30V71.438
			L458.998,126.5L271,181.562V172H241z M482,350.977l-9.575-2.805l-8.432,28.791l12.078,3.537L271,440.563v-227.74l211-61.799
			V350.977z"/>
	</g>
</g>
<g>
	<g>
		
			<rect x="129.567" y="318.074" transform="matrix(0.9597 -0.2811 0.2811 0.9597 -87.7962 54.0665)" width="30.001" height="30.001"/>
	</g>
</g>
<g>
	<g>
		<rect x="187.144" y="301.204" transform="matrix(0.9597 -0.2811 0.2811 0.9597 -80.7326 69.5706)" width="30.001" height="30"/>
	</g>
</g>
<g>
	<g>
		<rect x="71.971" y="334.934" transform="matrix(0.9597 -0.2811 0.2811 0.9597 -94.8581 38.5565)" width="30.001" height="30"/>
	</g>
</g>
<g>
	<g>
		
			<rect x="352.424" y="318.042" transform="matrix(0.2811 -0.9597 0.9597 0.2811 -55.4698 592.0361)" width="30.001" height="30.001"/>
	</g>
</g>
<g>
	<g>
		<rect x="294.851" y="301.181" transform="matrix(0.2811 -0.9597 0.9597 0.2811 -80.679 524.6626)" width="30" height="30.001"/>
	</g>
</g>
<g>
	<g>
		<rect x="409.999" y="334.908" transform="matrix(0.2811 -0.9597 0.9597 0.2811 -30.2666 659.414)" width="30" height="30.001"/>
	</g>
</g>
<g>
	<g>
		<rect x="241" y="112" width="30" height="30"/>
	</g>
</g>
<g>
</g>
<g>
</g>
<g>
</g>
<g>
</g>
<g>
</g>
<g>
</g>
<g>
</g>
<g>
</g>
<g>
</g>
<g>
</g>
<g>
</g>
<g>
</g>
<g>
</g>
<g>
</g>
<g>
</g>
</svg>
