<?xml version="1.0" encoding="iso-8859-1"?>
<!-- Generator: Adobe Illustrator 19.0.0, SVG Export Plug-In . SVG Version: 6.00 Build 0)  -->
<svg version="1.1" id="Capa_1" xmlns="http://www.w3.org/2000/svg" xmlns:xlink="http://www.w3.org/1999/xlink" x="0px" y="0px"
	 viewBox="0 0 512 512" style="enable-background:new 0 0 512 512;" xml:space="preserve">
<g>
	<g>
		<path d="M374.369,115.224C384.73,103.015,391,87.23,391,70c0-38.599-31.402-70-70-70c-38.598,0-70,31.401-70,70
			c0,14.865,4.672,28.652,12.604,40H156c-19.299,0-35,15.701-35,35v332c0,19.299,15.701,35,35,35h200c19.299,0,35-15.701,35-35V145
			C391,132.434,384.341,121.398,374.369,115.224z M361,477c0,2.757-2.243,5-5,5H156c-2.757,0-5-2.243-5-5v-55h210V477z M361,392H151
			V145c0-2.757,2.243-5,5-5h200c2.757,0,5,2.243,5,5V392z M321,110c-22.056,0-40-17.944-40-40c0-22.056,17.944-40,40-40
			c5.537,0,10.813,1.132,15.613,3.175l-12.784,12.784l21.213,21.213l12.784-12.784C359.868,59.187,361,64.464,361,70
			C361,92.056,343.056,110,321,110z"/>
	</g>
</g>
<g>
	<g>
		<circle cx="256" cy="452" r="15"/>
	</g>
</g>
<g>
	<g>
		<rect x="208" y="156" width="92" height="30"/>
	</g>
</g>
<g>
	<g>
		<circle cx="321" cy="70" r="15"/>
	</g>
</g>
<g>
	<g>
		<path d="M316.811,231.189l-21.213,21.213C306.175,262.979,312,277.042,312,292s-5.825,29.021-16.402,39.598l21.213,21.213
			C333.054,336.567,342,314.972,342,292S333.054,247.433,316.811,231.189z"/>
	</g>
</g>
<g>
	<g>
		<path d="M216.402,252.402l-21.213-21.213C178.946,247.433,170,269.028,170,292s8.946,44.567,25.189,60.811l21.213-21.213
			C205.825,321.021,200,306.958,200,292S205.825,262.979,216.402,252.402z"/>
	</g>
</g>
<g>
</g>
<g>
</g>
<g>
</g>
<g>
</g>
<g>
</g>
<g>
</g>
<g>
</g>
<g>
</g>
<g>
</g>
<g>
</g>
<g>
</g>
<g>
</g>
<g>
</g>
<g>
</g>
<g>
</g>
</svg>
