<?xml version="1.0" encoding="iso-8859-1"?>
<!-- Generator: Adobe Illustrator 19.0.0, SVG Export Plug-In . SVG Version: 6.00 Build 0)  -->
<svg version="1.1" id="Capa_1" xmlns="http://www.w3.org/2000/svg" xmlns:xlink="http://www.w3.org/1999/xlink" x="0px" y="0px"
	 viewBox="0 0 512 512" style="enable-background:new 0 0 512 512;" xml:space="preserve">
<g>
	<g>
		<path d="M113,201c-27.57,0-50,22.43-50,50s22.43,50,50,50s50-22.43,50-50S140.57,201,113,201z M113,271c-11.028,0-20-8.972-20-20
			s8.972-20,20-20s20,8.972,20,20S124.028,271,113,271z"/>
	</g>
</g>
<g>
	<g>
		<path d="M347,201c-27.57,0-50,22.43-50,50s22.43,50,50,50s50-22.43,50-50S374.57,201,347,201z M347,271c-11.028,0-20-8.972-20-20
			s8.972-20,20-20s20,8.972,20,20S358.028,271,347,271z"/>
	</g>
</g>
<g>
	<g>
		<path d="M460,156V96H0v320h140c33.084,0,60-26.916,60-60v-30c0-16.542,13.458-30,30-30s30,13.458,30,30v30
			c0,33.084,26.916,60,60,60h140V256h52V156H460z M430,386H320c-16.542,0-30-13.458-30-30v-30c0-33.084-26.916-60-60-60
			s-60,26.916-60,60v30c0,16.542-13.458,30-30,30H30V186h400V386z M430,156H30v-30h400V156z M482,226h-22v-40h22V226z"/>
	</g>
</g>
<g>
</g>
<g>
</g>
<g>
</g>
<g>
</g>
<g>
</g>
<g>
</g>
<g>
</g>
<g>
</g>
<g>
</g>
<g>
</g>
<g>
</g>
<g>
</g>
<g>
</g>
<g>
</g>
<g>
</g>
</svg>
