<?xml version="1.0" encoding="iso-8859-1"?>
<!-- Generator: Adobe Illustrator 19.0.0, SVG Export Plug-In . SVG Version: 6.00 Build 0)  -->
<svg version="1.1" id="Capa_1" xmlns="http://www.w3.org/2000/svg" xmlns:xlink="http://www.w3.org/1999/xlink" x="0px" y="0px"
	 viewBox="0 0 418.037 418.037" style="enable-background:new 0 0 418.037 418.037;" xml:space="preserve">
<g>
	<g>
		<path d="M415.637,135.419c0,0,0,0-0.8-0.8l-95.2-80c-0.8-0.8-2.4-1.6-4-1.6l-40-4.8l6.4-8c2.4-3.2,2.4-8.8-0.8-11.2l-22.4-16
			c0,0-2.4-2.4-4.8-2.4h-88h-0.8h-0.8c-0.8,0-1.6,0.8-2.4,0.8l-25.6,16.8c-4,2.4-4.8,7.2-2.4,11.2c0,0,0,0.8,0.8,0.8l6.4,8l-40,4.8
			c-1.6,0-3.2,0.8-4,1.6l-94.4,80c-3.2,3.2-4,8-0.8,11.2c0,0,0,0,0.8,0.8l72.8,72v180.8c0,4.8,3.2,8,8,8h251.2c4.8,0,8-3.2,8-8
			v-180.8l72.8-72C418.837,143.419,418.837,138.619,415.637,135.419z M263.637,37.019l-37.6,48l-5.6-13.6c0,0,0.8,0,0.8-0.8l32.8-40
			L263.637,37.019z M164.437,29.019l33.6,41.6l-7.2,14.4l-38.4-48L164.437,29.019z M201.237,391.419l-0.8,0h-109.6v-224
			c0-4.8-3.2-8-8-8c-4.8,0-8,3.2-8,8v28l-55.2-54.4l85.6-72.8l47.2-5.6l34.4,43.2c2.4,3.2,8,4,11.2,1.6c0.8-0.8,1.6-1.6,2.4-2.4
			l0.8-0.8V391.419z M210.037,57.819h-1.6l-25.6-31.2h53.6l-25.6,31.2H210.037z M342.037,196.218v-28c0-4.8-3.2-8-8-8s-8,3.2-8,8
			v224h-109.6v-45.6h6.4c4.8,0,8-3.2,8-8s-3.2-8-8-8h-6.4v-48h6.4c4.8,0,8-3.2,8-8s-3.2-8-8-8h-6.4v-48h6.4c4.8,0,8-3.2,8-8
			s-3.2-8-8-8h-6.4v-48h6.4c4.8,0,8-3.2,8-8s-3.2-8-8-8h-6.4v-34.4c0.8,2.4,3.2,4.8,6.4,4.8h1.6c2.4,0,4.8-0.8,6.4-3.2l33.6-43.2
			l47.2,6.4l85.6,72.8L342.037,196.218z"/>
	</g>
</g>
<g>
</g>
<g>
</g>
<g>
</g>
<g>
</g>
<g>
</g>
<g>
</g>
<g>
</g>
<g>
</g>
<g>
</g>
<g>
</g>
<g>
</g>
<g>
</g>
<g>
</g>
<g>
</g>
<g>
</g>
</svg>
