<svg id="Capa_1" enable-background="new 0 0 512 512" height="512" viewBox="0 0 512 512" width="512" xmlns="http://www.w3.org/2000/svg"><g><path d="m421 286v-151c0-52.805-39.183-96.631-90-103.932v-16.068c0-8.284-6.716-15-15-15h-30c-11.517 0-22.032 4.354-30 11.495-7.968-7.141-18.483-11.495-30-11.495h-30c-8.284 0-15 6.716-15 15v16.068c-50.817 7.301-90 51.127-90 103.932v151c0 8.284 6.716 15 15 14.99h41.418c-4.55 36.5-13.229 75.09-24.834 98.302-2.325 4.65-2.076 10.172.657 14.594s7.561 7.114 12.76 7.114h15v76c0 8.284 6.716 15 15 15h180c8.284 0 15-6.716 15-15v-76h15c5.198 0 10.026-2.692 12.76-7.114 2.733-4.422 2.981-9.944.656-14.594-11.606-23.212-20.284-61.802-24.835-98.292h41.418c8.284 0 15-6.716 15-15zm-240 135h60v61h-60zm150 61h-60v-61h60zm60-211h-29.257c-.488-7.802-.743-15.238-.743-22.082v-113.918c0-8.284-6.716-15-15-15s-15 6.716-15 15v113.918c0 41.065 7.845 99.991 22.566 142.082h-195.132c14.721-42.09 22.566-101.016 22.566-142.082v-113.918c0-8.284-6.716-15-15-15s-15 6.716-15 15c0 0-.255 128.198-.743 136h-29.257v-136c0-41.355 33.645-75 75-75 8.284 0 15-6.716 15-15v-15h15c8.271 0 15 6.729 15 15v120c0 8.284 6.716 15 15 15s15-6.716 15-15v-120c0-8.271 6.729-15 15-15h15v15c0 8.284 6.716 15 15 15 41.355 0 75 33.645 75 75z"/></g></svg>